<?xml version="1.0" encoding="UTF-8"?>
<!DOCTYPE svg PUBLIC "-//W3C//DTD SVG 1.1//EN" "http://www.w3.org/Graphics/SVG/1.1/DTD/svg11.dtd">
<svg xmlns="http://www.w3.org/2000/svg" version="1.1" width="512px" height="512px" style="shape-rendering:geometricPrecision; text-rendering:geometricPrecision; image-rendering:optimizeQuality; fill-rule:evenodd; clip-rule:evenodd" xmlns:xlink="http://www.w3.org/1999/xlink">
<g><path style="opacity:1" fill="#056535" d="M 233.5,-0.5 C 241.167,-0.5 248.833,-0.5 256.5,-0.5C 256.5,48.5 256.5,97.5 256.5,146.5C 201.854,143.673 162.354,166.673 138,215.5C 119.828,264.287 128.661,307.454 164.5,345C 190.559,368.521 221.225,379.021 256.5,376.5C 256.5,421.5 256.5,466.5 256.5,511.5C 248.5,511.5 240.5,511.5 232.5,511.5C 142.856,500.612 75.3562,456.279 30,378.5C 15.7198,352.16 6.55316,324.16 2.5,294.5C 2.63818,289.586 1.97151,284.919 0.5,280.5C 0.67158,279.508 0.338246,278.842 -0.5,278.5C -0.5,263.167 -0.5,247.833 -0.5,232.5C 0.166667,232.5 0.5,232.167 0.5,231.5C 1.88899,226.731 2.55565,221.731 2.5,216.5C 3.57575,205.444 5.90908,194.778 9.5,184.5C 11.2766,181.495 12.2766,178.162 12.5,174.5C 34.0767,111.085 74.0767,62.9185 132.5,30C 164.276,13.1454 197.942,2.97872 233.5,-0.5 Z"/></g>
<g><path style="opacity:1" fill="#f3f3f4" d="M 256.5,-0.5 C 263.5,-0.5 270.5,-0.5 277.5,-0.5C 280.833,0.166667 284.167,0.833333 287.5,1.5C 285.473,1.33788 283.473,1.50454 281.5,2C 296.239,12.4016 307.739,25.5683 316,41.5C 331.754,72.8444 342.42,105.844 348,140.5C 353.767,173.237 356.934,206.237 357.5,239.5C 357.495,245.211 356.828,250.544 355.5,255.5C 346.167,252.5 336.833,249.5 327.5,246.5C 327.739,231.491 327.905,216.491 328,201.5C 319.024,213.31 309.857,224.977 300.5,236.5C 286.64,230.937 272.64,226.103 258.5,222C 267.204,233.906 275.537,246.073 283.5,258.5C 274.962,270.267 265.962,281.6 256.5,292.5C 256.832,250.997 256.499,209.663 255.5,168.5C 271.815,164.328 288.148,164.828 304.5,170C 311.052,172.126 317.385,174.459 323.5,177C 304.455,159.814 282.121,149.647 256.5,146.5C 256.5,97.5 256.5,48.5 256.5,-0.5 Z"/></g>
<g><path style="opacity:1" fill="#e4e4e4" d="M 287.5,1.5 C 367.827,13.0441 429.994,52.7108 474,120.5C 494.822,155.132 507.322,192.465 511.5,232.5C 511.5,247.833 511.5,263.167 511.5,278.5C 500.612,368.144 456.279,435.644 378.5,481C 350.011,496.441 319.678,505.941 287.5,509.5C 285.473,509.662 283.473,509.495 281.5,509C 301.789,492.952 316.623,472.786 326,448.5C 339.961,411.702 348.961,373.702 353,334.5C 355.797,311.397 356.964,288.397 356.5,265.5C 360.664,263.865 364.998,262.365 369.5,261C 364.536,259.629 359.869,257.796 355.5,255.5C 356.828,250.544 357.495,245.211 357.5,239.5C 356.934,206.237 353.767,173.237 348,140.5C 342.42,105.844 331.754,72.8444 316,41.5C 307.739,25.5683 296.239,12.4016 281.5,2C 283.473,1.50454 285.473,1.33788 287.5,1.5 Z"/></g>
<g><path style="opacity:1" fill="#e41f25" d="M 256.5,146.5 C 282.121,149.647 304.455,159.814 323.5,177C 317.385,174.459 311.052,172.126 304.5,170C 288.148,164.828 271.815,164.328 255.5,168.5C 221.454,177.374 198.287,198.374 186,231.5C 174.393,278.365 188.226,315.532 227.5,343C 236.686,348.116 246.352,351.949 256.5,354.5C 268.405,356.893 280.405,357.059 292.5,355C 302.918,352.968 312.918,349.968 322.5,346C 303.591,362.956 281.591,373.122 256.5,376.5C 221.225,379.021 190.559,368.521 164.5,345C 128.661,307.454 119.828,264.287 138,215.5C 162.354,166.673 201.854,143.673 256.5,146.5 Z"/></g>
<g><path style="opacity:1" fill="#056535" d="M 255.5,168.5 C 256.499,209.663 256.832,250.997 256.5,292.5C 256.5,293.167 256.5,293.833 256.5,294.5C 256.5,314.5 256.5,334.5 256.5,354.5C 246.352,351.949 236.686,348.116 227.5,343C 188.226,315.532 174.393,278.365 186,231.5C 198.287,198.374 221.454,177.374 255.5,168.5 Z"/></g>
<g><path style="opacity:0.992" fill="#87b59d" d="M 12.5,174.5 C 12.2766,178.162 11.2766,181.495 9.5,184.5C 9.7234,180.838 10.7234,177.505 12.5,174.5 Z"/></g>
<g><path style="opacity:1" fill="#e62127" d="M 355.5,255.5 C 359.869,257.796 364.536,259.629 369.5,261C 364.998,262.365 360.664,263.865 356.5,265.5C 346.737,267.753 337.071,270.42 327.5,273.5C 326.239,288.479 325.239,303.479 324.5,318.5C 316.067,305.954 307.4,293.621 298.5,281.5C 284.471,285.839 270.471,290.172 256.5,294.5C 256.5,293.833 256.5,293.167 256.5,292.5C 265.962,281.6 274.962,270.267 283.5,258.5C 275.537,246.073 267.204,233.906 258.5,222C 272.64,226.103 286.64,230.937 300.5,236.5C 309.857,224.977 319.024,213.31 328,201.5C 327.905,216.491 327.739,231.491 327.5,246.5C 336.833,249.5 346.167,252.5 355.5,255.5 Z"/></g>
<g><path style="opacity:0.996" fill="#74a98d" d="M 2.5,216.5 C 2.55565,221.731 1.88899,226.731 0.5,231.5C 0.444348,226.269 1.11101,221.269 2.5,216.5 Z"/></g>
<g><path style="opacity:1" fill="#f3f3f4" d="M 356.5,265.5 C 356.964,288.397 355.797,311.397 353,334.5C 348.961,373.702 339.961,411.702 326,448.5C 316.623,472.786 301.789,492.952 281.5,509C 283.473,509.495 285.473,509.662 287.5,509.5C 284.167,510.167 280.833,510.833 277.5,511.5C 270.5,511.5 263.5,511.5 256.5,511.5C 256.5,466.5 256.5,421.5 256.5,376.5C 281.591,373.122 303.591,362.956 322.5,346C 312.918,349.968 302.918,352.968 292.5,355C 280.405,357.059 268.405,356.893 256.5,354.5C 256.5,334.5 256.5,314.5 256.5,294.5C 270.471,290.172 284.471,285.839 298.5,281.5C 307.4,293.621 316.067,305.954 324.5,318.5C 325.239,303.479 326.239,288.479 327.5,273.5C 337.071,270.42 346.737,267.753 356.5,265.5 Z"/></g>
<g><path style="opacity:0.78" fill="#82b299" d="M 0.5,280.5 C 1.97151,284.919 2.63818,289.586 2.5,294.5C 1.19854,290.057 0.531877,285.391 0.5,280.5 Z"/></g>
</svg>
