<?xml version="1.0" encoding="UTF-8"?>
<!DOCTYPE svg PUBLIC "-//W3C//DTD SVG 1.1//EN" "http://www.w3.org/Graphics/SVG/1.1/DTD/svg11.dtd">
<svg xmlns="http://www.w3.org/2000/svg" version="1.1" width="512px" height="512px" style="shape-rendering:geometricPrecision; text-rendering:geometricPrecision; image-rendering:optimizeQuality; fill-rule:evenodd; clip-rule:evenodd" xmlns:xlink="http://www.w3.org/1999/xlink">
<g><path style="opacity:1" fill="#cc3434" d="M 233.5,-0.5 C 248.167,-0.5 262.833,-0.5 277.5,-0.5C 278.568,0.434475 279.901,0.767809 281.5,0.5C 281.5,0.833333 281.5,1.16667 281.5,1.5C 302.154,17.4291 316.987,37.7625 326,62.5C 339.272,97.0267 347.772,132.693 351.5,169.5C 239.167,169.5 126.833,169.5 14.5,169.5C 14.5,169.167 14.5,168.833 14.5,168.5C 18.4394,156.628 23.4394,145.295 29.5,134.5C 30.9063,134.027 31.573,133.027 31.5,131.5C 31.3284,130.508 31.6618,129.842 32.5,129.5C 33.9063,129.027 34.573,128.027 34.5,126.5C 34.6596,124.847 35.3263,123.514 36.5,122.5C 37.9063,122.027 38.573,121.027 38.5,119.5C 39.7589,115.975 41.7589,112.975 44.5,110.5C 45.9063,110.027 46.573,109.027 46.5,107.5C 48.016,104.467 50.016,101.8 52.5,99.5C 54.5869,98.4154 55.9202,96.7488 56.5,94.5C 58.2624,93.7377 59.2624,92.4044 59.5,90.5C 65.1305,83.2018 71.4639,76.5352 78.5,70.5C 82.1002,68.5698 85.1002,65.9031 87.5,62.5C 89.2393,59.7573 91.5726,57.7573 94.5,56.5C 96.7488,55.9202 98.4154,54.5869 99.5,52.5C 109.132,44.0112 119.798,37.0112 131.5,31.5C 133.027,31.573 134.027,30.9063 134.5,29.5C 147.972,21.6021 162.305,15.6021 177.5,11.5C 180.152,11.5905 182.485,10.9238 184.5,9.5C 187.152,9.59047 189.485,8.92381 191.5,7.5C 199.5,4.75569 207.833,3.08902 216.5,2.5C 221.731,2.55565 226.731,1.88899 231.5,0.5C 232.492,0.67158 233.158,0.338246 233.5,-0.5 Z"/></g>
<g><path style="opacity:0.996" fill="#df7a78" d="M 231.5,0.5 C 226.731,1.88899 221.731,2.55565 216.5,2.5C 221.269,1.11101 226.269,0.444348 231.5,0.5 Z"/></g>
<g><path style="opacity:1" fill="#c42c28" d="M 281.5,1.5 C 285.81,2.08021 290.143,2.41355 294.5,2.5C 296.735,2.20528 298.735,2.53862 300.5,3.5C 303.589,4.78457 306.922,5.45123 310.5,5.5C 321.606,7.2738 332.273,10.2738 342.5,14.5C 343.78,15.9313 345.447,16.5979 347.5,16.5C 357.65,19.8781 367.317,24.2114 376.5,29.5C 376.973,30.9063 377.973,31.573 379.5,31.5C 404.327,44.3107 425.994,61.3107 444.5,82.5C 445.08,84.7488 446.413,86.4154 448.5,87.5C 450.167,88.5 451.5,89.8333 452.5,91.5C 452.427,93.0269 453.094,94.0269 454.5,94.5C 455.08,96.7488 456.413,98.4154 458.5,99.5C 460.984,101.8 462.984,104.467 464.5,107.5C 464.427,109.027 465.094,110.027 466.5,110.5C 466.427,112.027 467.094,113.027 468.5,113.5C 471.579,116.65 473.913,120.317 475.5,124.5C 475.427,126.027 476.094,127.027 477.5,127.5C 478.674,128.514 479.34,129.847 479.5,131.5C 479.427,133.027 480.094,134.027 481.5,134.5C 486.952,144.409 491.618,154.742 495.5,165.5C 495.5,166.833 495.5,168.167 495.5,169.5C 447.5,169.5 399.5,169.5 351.5,169.5C 347.772,132.693 339.272,97.0267 326,62.5C 316.987,37.7625 302.154,17.4291 281.5,1.5 Z"/></g>
<g><path style="opacity:0.796" fill="#e28f8b" d="M 281.5,1.5 C 281.5,1.16667 281.5,0.833333 281.5,0.5C 286.049,0.624456 290.382,1.29112 294.5,2.5C 290.143,2.41355 285.81,2.08021 281.5,1.5 Z"/></g>
<g><path style="opacity:0.471" fill="#e59b97" d="M 300.5,3.5 C 304.122,3.32198 307.456,3.98864 310.5,5.5C 306.922,5.45123 303.589,4.78457 300.5,3.5 Z"/></g>
<g><path style="opacity:0.984" fill="#e28482" d="M 191.5,7.5 C 189.485,8.92381 187.152,9.59047 184.5,9.5C 186.515,8.07619 188.848,7.40953 191.5,7.5 Z"/></g>
<g><path style="opacity:0.988" fill="#e1807e" d="M 184.5,9.5 C 182.485,10.9238 180.152,11.5905 177.5,11.5C 179.515,10.0762 181.848,9.40953 184.5,9.5 Z"/></g>
<g><path style="opacity:0.655" fill="#e6a09d" d="M 342.5,14.5 C 344.553,14.4021 346.22,15.0687 347.5,16.5C 345.447,16.5979 343.78,15.9313 342.5,14.5 Z"/></g>
<g><path style="opacity:0.925" fill="#e9a19f" d="M 134.5,29.5 C 134.027,30.9063 133.027,31.573 131.5,31.5C 131.973,30.0937 132.973,29.427 134.5,29.5 Z"/></g>
<g><path style="opacity:0.349" fill="#ebb1ae" d="M 376.5,29.5 C 378.027,29.427 379.027,30.0937 379.5,31.5C 377.973,31.573 376.973,30.9063 376.5,29.5 Z"/></g>
<g><path style="opacity:0.996" fill="#e17e7b" d="M 99.5,52.5 C 98.4154,54.5869 96.7488,55.9202 94.5,56.5C 95.5846,54.4131 97.2512,53.0798 99.5,52.5 Z"/></g>
<g><path style="opacity:1" fill="#de7470" d="M 87.5,62.5 C 85.1002,65.9031 82.1002,68.5698 78.5,70.5C 80.8998,67.0969 83.8998,64.4302 87.5,62.5 Z"/></g>
<g><path style="opacity:0.98" fill="#e89f9a" d="M 444.5,82.5 C 446.587,83.5846 447.92,85.2512 448.5,87.5C 446.413,86.4154 445.08,84.7488 444.5,82.5 Z"/></g>
<g><path style="opacity:0.961" fill="#eaa2a0" d="M 59.5,90.5 C 59.2624,92.4044 58.2624,93.7377 56.5,94.5C 56.7376,92.5956 57.7376,91.2623 59.5,90.5 Z"/></g>
<g><path style="opacity:0.765" fill="#e69b97" d="M 452.5,91.5 C 453.906,91.9731 454.573,92.9731 454.5,94.5C 453.094,94.0269 452.427,93.0269 452.5,91.5 Z"/></g>
<g><path style="opacity:0.886" fill="#e79290" d="M 56.5,94.5 C 55.9202,96.7488 54.5869,98.4154 52.5,99.5C 53.0798,97.2512 54.4131,95.5846 56.5,94.5 Z"/></g>
<g><path style="opacity:0.682" fill="#e59792" d="M 454.5,94.5 C 456.587,95.5846 457.92,97.2512 458.5,99.5C 456.413,98.4154 455.08,96.7488 454.5,94.5 Z"/></g>
<g><path style="opacity:0.737" fill="#eba4a3" d="M 46.5,107.5 C 46.573,109.027 45.9063,110.027 44.5,110.5C 44.427,108.973 45.0937,107.973 46.5,107.5 Z"/></g>
<g><path style="opacity:0.776" fill="#e2918e" d="M 464.5,107.5 C 465.906,107.973 466.573,108.973 466.5,110.5C 465.094,110.027 464.427,109.027 464.5,107.5 Z"/></g>
<g><path style="opacity:0.827" fill="#e59a95" d="M 466.5,110.5 C 467.906,110.973 468.573,111.973 468.5,113.5C 467.094,113.027 466.427,112.027 466.5,110.5 Z"/></g>
<g><path style="opacity:0.561" fill="#eca9a8" d="M 38.5,119.5 C 38.573,121.027 37.9063,122.027 36.5,122.5C 36.427,120.973 37.0937,119.973 38.5,119.5 Z"/></g>
<g><path style="opacity:0.51" fill="#e9a9a6" d="M 475.5,124.5 C 476.906,124.973 477.573,125.973 477.5,127.5C 476.094,127.027 475.427,126.027 475.5,124.5 Z"/></g>
<g><path style="opacity:0.686" fill="#e89b99" d="M 34.5,126.5 C 34.573,128.027 33.9063,129.027 32.5,129.5C 32.427,127.973 33.0937,126.973 34.5,126.5 Z"/></g>
<g><path style="opacity:0.549" fill="#e99f9d" d="M 31.5,131.5 C 31.573,133.027 30.9063,134.027 29.5,134.5C 29.427,132.973 30.0937,131.973 31.5,131.5 Z"/></g>
<g><path style="opacity:0.498" fill="#eaa9a6" d="M 479.5,131.5 C 480.906,131.973 481.573,132.973 481.5,134.5C 480.094,134.027 479.427,133.027 479.5,131.5 Z"/></g>
<g><path style="opacity:1" fill="#d97574" d="M 495.5,165.5 C 496.404,166.209 496.737,167.209 496.5,168.5C 448.845,170.495 400.845,171.162 352.5,170.5C 239.665,170.833 126.999,170.5 14.5,169.5C 126.833,169.5 239.167,169.5 351.5,169.5C 399.5,169.5 447.5,169.5 495.5,169.5C 495.5,168.167 495.5,166.833 495.5,165.5 Z"/></g>
<g><path style="opacity:1" fill="#efefee" d="M 14.5,168.5 C 14.5,168.833 14.5,169.167 14.5,169.5C 126.999,170.5 239.665,170.833 352.5,170.5C 359.167,226.836 359.167,283.169 352.5,339.5C 239.5,339.5 126.5,339.5 13.5,339.5C 6.46512,319.695 1.79845,299.362 -0.5,278.5C -0.5,263.167 -0.5,247.833 -0.5,232.5C 1.95006,210.586 6.95006,189.252 14.5,168.5 Z"/></g>
<g><path style="opacity:1" fill="#efecec" d="M 496.5,168.5 C 504.05,189.255 509.05,210.588 511.5,232.5C 511.5,247.833 511.5,263.167 511.5,278.5C 509.202,299.359 504.536,319.693 497.5,339.5C 449.167,339.5 400.833,339.5 352.5,339.5C 359.167,283.169 359.167,226.836 352.5,170.5C 400.845,171.162 448.845,170.495 496.5,168.5 Z"/></g>
<g><path style="opacity:1" fill="#efc350" d="M 262.5,201.5 C 259.231,200.181 256.065,200.514 253,202.5C 249.725,199.52 245.892,198.353 241.5,199C 241.167,199.333 240.833,199.667 240.5,200C 244.205,200.279 247.205,201.779 249.5,204.5C 249.376,205.107 249.043,205.44 248.5,205.5C 247.833,205.833 247.167,206.167 246.5,206.5C 245.047,203.606 242.714,201.94 239.5,201.5C 239.33,200.178 239.663,199.011 240.5,198C 243.23,197.272 245.897,197.438 248.5,198.5C 254.114,195.433 258.781,196.433 262.5,201.5 Z"/></g>
<g><path style="opacity:1" fill="#eed58f" d="M 248.5,205.5 C 248.666,210.179 248.499,214.845 248,219.5C 247.626,221.491 246.793,223.158 245.5,224.5C 247.433,218.533 247.766,212.533 246.5,206.5C 247.167,206.167 247.833,205.833 248.5,205.5 Z"/></g>
<g><path style="opacity:1" fill="#efddac" d="M 222.5,223.5 C 219.167,223.5 215.833,223.5 212.5,223.5C 215.799,220.954 219.132,220.954 222.5,223.5 Z"/></g>
<g><path style="opacity:1" fill="#efece5" d="M 262.5,201.5 C 263.404,202.209 263.737,203.209 263.5,204.5C 263.334,210.509 263.501,216.509 264,222.5C 264.848,225.698 266.348,228.531 268.5,231C 266.299,231.825 264.466,231.325 263,229.5C 262.383,230.449 262.549,231.282 263.5,232C 262.906,232.464 262.239,232.631 261.5,232.5C 262.799,234.099 264.465,234.599 266.5,234C 266.167,233.667 265.833,233.333 265.5,233C 270.474,231.643 275.141,229.81 279.5,227.5C 284.264,223.422 289.597,221.755 295.5,222.5C 297.103,223.596 298.603,224.93 300,226.5C 300.74,227.749 300.573,228.749 299.5,229.5C 298.391,229.443 297.391,229.11 296.5,228.5C 295.833,231.5 295.167,234.5 294.5,237.5C 295.969,229.301 294.136,227.968 289,233.5C 289.847,256.484 290.847,279.484 292,302.5C 293.351,304.019 294.851,305.352 296.5,306.5C 297.495,301.208 297.828,295.875 297.5,290.5C 297.263,289.209 297.596,288.209 298.5,287.5C 298.144,295.238 298.644,302.905 300,310.5C 301.73,312.076 303.563,313.41 305.5,314.5C 302.038,315.482 298.371,315.815 294.5,315.5C 292.869,310.178 289.203,308.178 283.5,309.5C 282.686,303.888 281.353,298.388 279.5,293C 279.57,292.235 279.903,291.735 280.5,291.5C 280.56,292.043 280.893,292.376 281.5,292.5C 281.833,288.667 282.167,284.833 282.5,281C 281.765,267.509 281.431,254.009 281.5,240.5C 279.436,240.687 277.436,241.187 275.5,242C 276.392,246.764 276.392,251.597 275.5,256.5C 273.996,260.811 272.329,265.144 270.5,269.5C 269.31,271.869 267.643,273.869 265.5,275.5C 271.602,265.766 274.602,255.099 274.5,243.5C 270.785,243.577 267.119,243.244 263.5,242.5C 263.082,241.778 262.416,241.278 261.5,241C 262.167,240.667 262.833,240.333 263.5,240C 262.255,239.209 260.922,238.709 259.5,238.5C 258.235,237.521 256.901,236.521 255.5,235.5C 249.208,239.93 242.208,241.93 234.5,241.5C 233.07,241.579 231.736,241.246 230.5,240.5C 228.585,258.119 227.752,275.786 228,293.5C 229.039,292.29 230.206,291.29 231.5,290.5C 230.293,294.787 229.293,299.12 228.5,303.5C 227.262,305.214 226.595,307.214 226.5,309.5C 223.603,309.125 220.937,309.625 218.5,311C 219.956,311.423 220.456,312.256 220,313.5C 218.855,314.684 217.688,314.684 216.5,313.5C 213.615,313.806 210.948,313.473 208.5,312.5C 209.122,311.373 209.955,310.373 211,309.5C 211.333,304.833 211.667,300.167 212,295.5C 212.333,299.5 212.667,303.5 213,307.5C 215,305.5 217,303.5 219,301.5C 219.489,287.163 219.989,272.83 220.5,258.5C 221.485,262.634 221.818,266.968 221.5,271.5C 220.765,280.827 220.598,290.16 221,299.5C 223.14,298.272 224.807,296.605 226,294.5C 226.624,275.828 226.957,257.161 227,238.5C 225.981,237.313 224.814,236.313 223.5,235.5C 222.503,242.134 222.17,248.8 222.5,255.5C 221.515,251.366 221.182,247.032 221.5,242.5C 222.901,236.632 221.068,232.298 216,229.5C 215.501,233.152 215.335,236.818 215.5,240.5C 215.167,240.5 214.833,240.5 214.5,240.5C 214.824,236.445 214.491,232.445 213.5,228.5C 212.252,229.04 211.085,229.707 210,230.5C 209.517,229.552 209.351,228.552 209.5,227.5C 209.554,225.368 210.554,224.035 212.5,223.5C 215.833,223.5 219.167,223.5 222.5,223.5C 230.634,227.971 238.467,231.637 246,234.5C 247.225,234.138 248.391,233.638 249.5,233C 248.333,232.5 247.5,231.667 247,230.5C 244.955,232.043 243.455,231.71 242.5,229.5C 243.263,227.632 244.263,225.965 245.5,224.5C 246.793,223.158 247.626,221.491 248,219.5C 248.499,214.845 248.666,210.179 248.5,205.5C 249.043,205.44 249.376,205.107 249.5,204.5C 247.205,201.779 244.205,200.279 240.5,200C 240.833,199.667 241.167,199.333 241.5,199C 245.892,198.353 249.725,199.52 253,202.5C 256.065,200.514 259.231,200.181 262.5,201.5 Z"/></g>
<g><path style="opacity:1" fill="#efd899" d="M 295.5,222.5 C 300.119,223.127 302.119,225.794 301.5,230.5C 300.508,230.672 299.842,230.338 299.5,229.5C 300.573,228.749 300.74,227.749 300,226.5C 298.603,224.93 297.103,223.596 295.5,222.5 Z"/></g>
<g><path style="opacity:1" fill="#efdaa3" d="M 253.5,231.5 C 252.448,231.649 251.448,231.483 250.5,231C 252.255,228.07 253.422,224.903 254,221.5C 254.172,224.826 254.005,228.159 253.5,231.5 Z"/></g>
<g><path style="opacity:1" fill="#efd284" d="M 222.5,223.5 C 227.247,225.037 231.913,226.87 236.5,229C 238.473,229.495 240.473,229.662 242.5,229.5C 243.455,231.71 244.955,232.043 247,230.5C 247.5,231.667 248.333,232.5 249.5,233C 248.391,233.638 247.225,234.138 246,234.5C 238.467,231.637 230.634,227.971 222.5,223.5 Z"/></g>
<g><path style="opacity:1" fill="#eebe3a" d="M 296.5,228.5 C 297.391,229.11 298.391,229.443 299.5,229.5C 299.842,230.338 300.508,230.672 301.5,230.5C 303.156,258.425 304.489,286.425 305.5,314.5C 303.563,313.41 301.73,312.076 300,310.5C 298.644,302.905 298.144,295.238 298.5,287.5C 298.81,284.287 298.477,281.287 297.5,278.5C 297.823,271.978 297.49,265.645 296.5,259.5C 296.5,249.167 296.5,238.833 296.5,228.5 Z"/></g>
<g><path style="opacity:1" fill="#eebe3b" d="M 209.5,227.5 C 209.351,228.552 209.517,229.552 210,230.5C 211.085,229.707 212.252,229.04 213.5,228.5C 214.491,232.445 214.824,236.445 214.5,240.5C 212.727,258.454 212.227,276.454 213,294.5C 213.82,276.494 214.654,258.494 215.5,240.5C 215.335,236.818 215.501,233.152 216,229.5C 221.068,232.298 222.901,236.632 221.5,242.5C 220.512,247.64 220.179,252.974 220.5,258.5C 219.989,272.83 219.489,287.163 219,301.5C 217,303.5 215,305.5 213,307.5C 212.667,303.5 212.333,299.5 212,295.5C 211.667,300.167 211.333,304.833 211,309.5C 209.955,310.373 209.122,311.373 208.5,312.5C 207.542,312.953 206.708,313.619 206,314.5C 205.503,312.19 205.337,309.857 205.5,307.5C 206.154,282.163 206.987,256.83 208,231.5C 208.21,229.942 208.71,228.609 209.5,227.5 Z"/></g>
<g><path style="opacity:1" fill="#eed07c" d="M 263.5,204.5 C 264.327,209.985 264.827,215.652 265,221.5C 265.725,223.949 266.725,226.283 268,228.5C 269.062,229.097 270.228,229.43 271.5,229.5C 274.178,228.825 276.844,228.158 279.5,227.5C 275.141,229.81 270.474,231.643 265.5,233C 265.833,233.333 266.167,233.667 266.5,234C 264.465,234.599 262.799,234.099 261.5,232.5C 262.239,232.631 262.906,232.464 263.5,232C 262.549,231.282 262.383,230.449 263,229.5C 264.466,231.325 266.299,231.825 268.5,231C 266.348,228.531 264.848,225.698 264,222.5C 263.501,216.509 263.334,210.509 263.5,204.5 Z"/></g>
<g><path style="opacity:1" fill="#eebd37" d="M 294.5,237.5 C 295.143,245.15 295.477,252.817 295.5,260.5C 296.118,267.817 296.451,275.151 296.5,282.5C 296.194,285.385 296.527,288.052 297.5,290.5C 297.828,295.875 297.495,301.208 296.5,306.5C 294.851,305.352 293.351,304.019 292,302.5C 290.847,279.484 289.847,256.484 289,233.5C 294.136,227.968 295.969,229.301 294.5,237.5 Z"/></g>
<g><path style="opacity:1" fill="#f0d798" d="M 261.5,232.5 C 260.417,232.461 259.417,232.127 258.5,231.5C 257.452,232.383 256.285,233.05 255,233.5C 253.97,233.164 253.47,232.497 253.5,231.5C 255.298,232.463 256.632,231.796 257.5,229.5C 256.346,226.898 255.846,224.232 256,221.5C 256.803,225.678 258.636,229.345 261.5,232.5 Z"/></g>
<g><path style="opacity:1" fill="#eebf41" d="M 221.5,271.5 C 222.488,266.36 222.821,261.026 222.5,255.5C 222.17,248.8 222.503,242.134 223.5,235.5C 224.814,236.313 225.981,237.313 227,238.5C 226.957,257.161 226.624,275.828 226,294.5C 224.807,296.605 223.14,298.272 221,299.5C 220.598,290.16 220.765,280.827 221.5,271.5 Z"/></g>
<g><path style="opacity:1" fill="#eebf41" d="M 285.5,235.5 C 286.821,238.598 287.488,242.098 287.5,246C 288.75,263.821 289.25,281.654 289,299.5C 287.667,298.167 286.333,296.833 285,295.5C 283.985,276.829 283.318,258.162 283,239.5C 284.481,238.529 285.315,237.196 285.5,235.5 Z"/></g>
<g><path style="opacity:1" fill="#efeeee" d="M 259.5,238.5 C 259.579,239.958 260.079,241.292 261,242.5C 261.667,254.5 261.667,266.5 261,278.5C 259.242,280.765 257.075,282.432 254.5,283.5C 252.909,281.367 250.909,279.701 248.5,278.5C 248.187,266.087 248.521,253.753 249.5,241.5C 251.366,240.986 253.2,240.32 255,239.5C 255.873,239.735 256.707,240.069 257.5,240.5C 258.696,240.154 258.696,239.654 257.5,239C 258.094,238.536 258.761,238.369 259.5,238.5 Z"/></g>
<g><path style="opacity:1" fill="#efe0b9" d="M 296.5,228.5 C 296.5,238.833 296.5,249.167 296.5,259.5C 296.5,260.167 296.167,260.5 295.5,260.5C 295.477,252.817 295.143,245.15 294.5,237.5C 295.167,234.5 295.833,231.5 296.5,228.5 Z"/></g>
<g><path style="opacity:1" fill="#eebd38" d="M 234.5,241.5 C 234.098,252.052 233.765,262.719 233.5,273.5C 232.167,277.5 232.167,281.5 233.5,285.5C 233.5,286.5 233.5,287.5 233.5,288.5C 232.5,288.833 231.833,289.5 231.5,290.5C 230.206,291.29 229.039,292.29 228,293.5C 227.752,275.786 228.585,258.119 230.5,240.5C 231.736,241.246 233.07,241.579 234.5,241.5 Z"/></g>
<g><path style="opacity:1" fill="#f0ddad" d="M 259.5,238.5 C 258.761,238.369 258.094,238.536 257.5,239C 258.696,239.654 258.696,240.154 257.5,240.5C 256.707,240.069 255.873,239.735 255,239.5C 253.2,240.32 251.366,240.986 249.5,241.5C 244.939,242.811 240.272,243.478 235.5,243.5C 235.423,247.215 235.756,250.881 236.5,254.5C 235.28,256.05 235.28,257.716 236.5,259.5C 234.868,266.937 234.201,274.604 234.5,282.5C 233.523,279.713 233.19,276.713 233.5,273.5C 233.765,262.719 234.098,252.052 234.5,241.5C 242.208,241.93 249.208,239.93 255.5,235.5C 256.901,236.521 258.235,237.521 259.5,238.5 Z"/></g>
<g><path style="opacity:1" fill="#eebe3d" d="M 280.5,291.5 C 279.652,290.375 278.652,290.375 277.5,291.5C 277.326,289.139 276.993,286.806 276.5,284.5C 277.499,275.143 277.166,265.81 275.5,256.5C 276.392,251.597 276.392,246.764 275.5,242C 277.436,241.187 279.436,240.687 281.5,240.5C 281.431,254.009 281.765,267.509 282.5,281C 282.167,284.833 281.833,288.667 281.5,292.5C 280.893,292.376 280.56,292.043 280.5,291.5 Z"/></g>
<g><path style="opacity:1" fill="#eebd36" d="M 249.5,241.5 C 248.521,253.753 248.187,266.087 248.5,278.5C 247.833,278.167 247.167,277.833 246.5,277.5C 241.633,270.586 238.299,262.919 236.5,254.5C 235.756,250.881 235.423,247.215 235.5,243.5C 240.272,243.478 244.939,242.811 249.5,241.5 Z"/></g>
<g><path style="opacity:1" fill="#eebc33" d="M 263.5,242.5 C 267.119,243.244 270.785,243.577 274.5,243.5C 274.602,255.099 271.602,265.766 265.5,275.5C 264.542,275.953 263.708,276.619 263,277.5C 262.174,265.659 262.341,253.993 263.5,242.5 Z"/></g>
<g><path style="opacity:1" fill="#efdba6" d="M 221.5,242.5 C 221.182,247.032 221.515,251.366 222.5,255.5C 222.821,261.026 222.488,266.36 221.5,271.5C 221.818,266.968 221.485,262.634 220.5,258.5C 220.179,252.974 220.512,247.64 221.5,242.5 Z"/></g>
<g><path style="opacity:1" fill="#eebf41" d="M 236.5,259.5 C 237.099,262.963 238.099,266.296 239.5,269.5C 237.603,271.698 236.603,274.364 236.5,277.5C 235.833,279.167 235.167,280.833 234.5,282.5C 234.201,274.604 234.868,266.937 236.5,259.5 Z"/></g>
<g><path style="opacity:1" fill="#eec149" d="M 275.5,256.5 C 275.248,265.873 275.582,275.207 276.5,284.5C 274.749,280.078 273.416,275.411 272.5,270.5C 272.158,269.662 271.492,269.328 270.5,269.5C 272.329,265.144 273.996,260.811 275.5,256.5 Z"/></g>
<g><path style="opacity:1" fill="#efe7d1" d="M 236.5,254.5 C 238.299,262.919 241.633,270.586 246.5,277.5C 243.695,275.208 241.362,272.541 239.5,269.5C 238.099,266.296 237.099,262.963 236.5,259.5C 235.28,257.716 235.28,256.05 236.5,254.5 Z"/></g>
<g><path style="opacity:1" fill="#efdeb1" d="M 296.5,259.5 C 297.49,265.645 297.823,271.978 297.5,278.5C 297.768,280.099 297.434,281.432 296.5,282.5C 296.451,275.151 296.118,267.817 295.5,260.5C 296.167,260.5 296.5,260.167 296.5,259.5 Z"/></g>
<g><path style="opacity:1" fill="#efdba8" d="M 214.5,240.5 C 214.833,240.5 215.167,240.5 215.5,240.5C 214.654,258.494 213.82,276.494 213,294.5C 212.227,276.454 212.727,258.454 214.5,240.5 Z"/></g>
<g><path style="opacity:1" fill="#efd284" d="M 270.5,269.5 C 271.492,269.328 272.158,269.662 272.5,270.5C 270.175,271.655 269.008,273.655 269,276.5C 268.667,276.167 268.333,275.833 268,275.5C 267.292,276.381 266.458,277.047 265.5,277.5C 265.5,276.833 265.5,276.167 265.5,275.5C 267.643,273.869 269.31,271.869 270.5,269.5 Z"/></g>
<g><path style="opacity:1" fill="#efd285" d="M 239.5,269.5 C 241.362,272.541 243.695,275.208 246.5,277.5C 246.631,278.239 246.464,278.906 246,279.5C 245,278.5 244,277.5 243,276.5C 242.793,280.094 243.293,283.594 244.5,287C 244,287.5 243.5,288 243,288.5C 241.563,282.295 240.397,275.961 239.5,269.5 Z"/></g>
<g><path style="opacity:1" fill="#efe3c4" d="M 275.5,256.5 C 277.166,265.81 277.499,275.143 276.5,284.5C 275.582,275.207 275.248,265.873 275.5,256.5 Z"/></g>
<g><path style="opacity:1" fill="#eed180" d="M 233.5,273.5 C 233.19,276.713 233.523,279.713 234.5,282.5C 235.167,280.833 235.833,279.167 236.5,277.5C 236.244,279.792 236.577,281.959 237.5,284C 236.551,284.617 235.718,284.451 235,283.5C 234.722,284.416 234.222,285.082 233.5,285.5C 232.167,281.5 232.167,277.5 233.5,273.5 Z"/></g>
<g><path style="opacity:1" fill="#f0e8d6" d="M 239.5,269.5 C 240.397,275.961 241.563,282.295 243,288.5C 243.5,288 244,287.5 244.5,287C 243.293,283.594 242.793,280.094 243,276.5C 244,277.5 245,278.5 246,279.5C 246.464,278.906 246.631,278.239 246.5,277.5C 247.167,277.833 247.833,278.167 248.5,278.5C 250.909,279.701 252.909,281.367 254.5,283.5C 254.842,284.338 255.508,284.672 256.5,284.5C 254.847,285.799 253.347,285.466 252,283.5C 251.025,287.929 249.525,292.096 247.5,296C 248.056,296.383 248.389,296.883 248.5,297.5C 246.983,297.511 245.816,298.177 245,299.5C 243.803,296.911 242.803,294.244 242,291.5C 241,292.833 240,294.167 239,295.5C 238.55,292.894 237.05,291.561 234.5,291.5C 233.761,291.631 233.094,291.464 232.5,291C 233.252,290.329 233.586,289.496 233.5,288.5C 233.5,287.5 233.5,286.5 233.5,285.5C 234.222,285.082 234.722,284.416 235,283.5C 235.718,284.451 236.551,284.617 237.5,284C 236.577,281.959 236.244,279.792 236.5,277.5C 236.603,274.364 237.603,271.698 239.5,269.5 Z"/></g>
<g><path style="opacity:1" fill="#efebe3" d="M 272.5,270.5 C 273.416,275.411 274.749,280.078 276.5,284.5C 276.993,286.806 277.326,289.139 277.5,291.5C 276.469,290.645 275.303,289.978 274,289.5C 272.612,291.653 271.112,292.986 269.5,293.5C 269.808,294.308 270.308,294.975 271,295.5C 272.252,293.999 273.252,292.332 274,290.5C 275.154,291.743 276.488,292.743 278,293.5C 279.759,298.947 281.593,304.281 283.5,309.5C 281.401,310.612 279.067,311.279 276.5,311.5C 276.388,307.661 275.721,307.661 274.5,311.5C 273.167,312.833 271.833,312.833 270.5,311.5C 271.326,310.549 271.492,309.549 271,308.5C 269.812,309.563 269.312,310.897 269.5,312.5C 267.446,312.635 265.779,311.968 264.5,310.5C 264.042,306.462 263.376,302.462 262.5,298.5C 263.528,298.074 264.861,298.074 266.5,298.5C 267.167,296.181 267.334,293.847 267,291.5C 266.333,293.5 265.667,295.5 265,297.5C 263.961,296.29 262.794,295.29 261.5,294.5C 260.325,290.958 259.659,287.291 259.5,283.5C 260.833,282.167 262.167,282.167 263.5,283.5C 263.253,281.142 263.919,279.142 265.5,277.5C 266.458,277.047 267.292,276.381 268,275.5C 268.333,275.833 268.667,276.167 269,276.5C 269.008,273.655 270.175,271.655 272.5,270.5 Z"/></g>
<g><path style="opacity:1" fill="#efdaa2" d="M 259.5,238.5 C 260.922,238.709 262.255,239.209 263.5,240C 262.833,240.333 262.167,240.667 261.5,241C 262.416,241.278 263.082,241.778 263.5,242.5C 262.341,253.993 262.174,265.659 263,277.5C 263.708,276.619 264.542,275.953 265.5,275.5C 265.5,276.167 265.5,276.833 265.5,277.5C 263.919,279.142 263.253,281.142 263.5,283.5C 262.167,282.167 260.833,282.167 259.5,283.5C 258.609,284.11 257.609,284.443 256.5,284.5C 255.508,284.672 254.842,284.338 254.5,283.5C 257.075,282.432 259.242,280.765 261,278.5C 261.667,266.5 261.667,254.5 261,242.5C 260.079,241.292 259.579,239.958 259.5,238.5 Z"/></g>
<g><path style="opacity:1" fill="#eebd39" d="M 256.5,284.5 C 257.609,284.443 258.609,284.11 259.5,283.5C 259.659,287.291 260.325,290.958 261.5,294.5C 261.232,296.099 261.566,297.432 262.5,298.5C 263.376,302.462 264.042,306.462 264.5,310.5C 263.508,310.328 262.842,310.662 262.5,311.5C 261.504,311.586 260.671,311.252 260,310.5C 259.055,306.886 258.388,303.219 258,299.5C 257.667,303.5 257.333,307.5 257,311.5C 255.413,312.727 254.079,312.394 253,310.5C 252.918,305.495 252.918,300.495 253,295.5C 252.088,299.795 251.421,304.128 251,308.5C 250.578,310.426 249.411,311.426 247.5,311.5C 246.314,309.208 246.314,306.874 247.5,304.5C 247.298,302.05 247.631,299.717 248.5,297.5C 248.389,296.883 248.056,296.383 247.5,296C 249.525,292.096 251.025,287.929 252,283.5C 253.347,285.466 254.847,285.799 256.5,284.5 Z"/></g>
<g><path style="opacity:1" fill="#efd797" d="M 263.5,283.5 C 264.482,284.141 265.482,284.807 266.5,285.5C 267.318,282.893 267.818,280.226 268,277.5C 268.692,278.025 269.192,278.692 269.5,279.5C 268.986,282.644 268.153,285.644 267,288.5C 265.899,286.606 264.566,285.939 263,286.5C 262.53,285.423 262.697,284.423 263.5,283.5 Z"/></g>
<g><path style="opacity:1" fill="#eed48e" d="M 297.5,278.5 C 298.477,281.287 298.81,284.287 298.5,287.5C 297.596,288.209 297.263,289.209 297.5,290.5C 296.527,288.052 296.194,285.385 296.5,282.5C 297.434,281.432 297.768,280.099 297.5,278.5 Z"/></g>
<g><path style="opacity:1" fill="#efd07d" d="M 233.5,288.5 C 233.586,289.496 233.252,290.329 232.5,291C 233.094,291.464 233.761,291.631 234.5,291.5C 232.136,295.297 230.136,299.297 228.5,303.5C 229.293,299.12 230.293,294.787 231.5,290.5C 231.833,289.5 232.5,288.833 233.5,288.5 Z"/></g>
<g><path style="opacity:1" fill="#efede9" d="M 234.5,291.5 C 237.05,291.561 238.55,292.894 239,295.5C 240,294.167 241,292.833 242,291.5C 242.803,294.244 243.803,296.911 245,299.5C 245.816,298.177 246.983,297.511 248.5,297.5C 247.631,299.717 247.298,302.05 247.5,304.5C 245.803,306.305 244.97,308.639 245,311.5C 242.291,312.706 240.625,311.706 240,308.5C 238.647,309.685 237.48,311.019 236.5,312.5C 235.684,310.713 234.684,309.046 233.5,307.5C 232.895,308.587 233.228,309.754 234.5,311C 232.892,311.658 231.725,311.158 231,309.5C 229.989,310.337 228.822,310.67 227.5,310.5C 227.993,308.194 228.326,305.861 228.5,303.5C 230.136,299.297 232.136,295.297 234.5,291.5 Z"/></g>
<g><path style="opacity:1" fill="#efd58f" d="M 277.5,291.5 C 278.652,290.375 279.652,290.375 280.5,291.5C 279.903,291.735 279.57,292.235 279.5,293C 281.353,298.388 282.686,303.888 283.5,309.5C 281.593,304.281 279.759,298.947 278,293.5C 276.488,292.743 275.154,291.743 274,290.5C 273.252,292.332 272.252,293.999 271,295.5C 270.308,294.975 269.808,294.308 269.5,293.5C 271.112,292.986 272.612,291.653 274,289.5C 275.303,289.978 276.469,290.645 277.5,291.5 Z"/></g>
<g><path style="opacity:1" fill="#efd99e" d="M 262.5,298.5 C 261.566,297.432 261.232,296.099 261.5,294.5C 262.794,295.29 263.961,296.29 265,297.5C 265.667,295.5 266.333,293.5 267,291.5C 267.334,293.847 267.167,296.181 266.5,298.5C 264.861,298.074 263.528,298.074 262.5,298.5 Z"/></g>
<g><path style="opacity:1" fill="#eecf7a" d="M 243.5,302.5 C 245.154,299.863 245.654,300.197 245,303.5C 244.617,302.944 244.117,302.611 243.5,302.5 Z"/></g>
<g><path style="opacity:1" fill="#efd799" d="M 243.5,302.5 C 241.643,307.746 239.643,307.746 237.5,302.5C 236.38,303.833 235.047,304.333 233.5,304C 235,302.5 236.5,301 238,299.5C 238.748,301.332 239.748,302.999 241,304.5C 241.708,303.619 242.542,302.953 243.5,302.5 Z"/></g>
<g><path style="opacity:1" fill="#efe7d3" d="M 262.5,311.5 C 266.47,312.891 270.47,313.891 274.5,314.5C 272.952,314.821 272.285,315.821 272.5,317.5C 268.5,317.5 264.5,317.5 260.5,317.5C 260.762,316.022 260.429,314.689 259.5,313.5C 256.5,314.833 253.5,314.833 250.5,313.5C 250.167,313.667 249.833,313.833 249.5,314C 250.579,314.956 251.745,315.789 253,316.5C 255.123,316.256 256.956,316.256 258.5,316.5C 259.639,318.396 258.973,319.396 256.5,319.5C 256.44,318.957 256.107,318.624 255.5,318.5C 253.8,322.458 252.133,322.458 250.5,318.5C 250.631,317.761 250.464,317.094 250,316.5C 246.256,317.626 242.423,317.793 238.5,317C 237.934,316.005 237.267,315.172 236.5,314.5C 240.292,314.007 243.958,313.007 247.5,311.5C 249.411,311.426 250.578,310.426 251,308.5C 251.421,304.128 252.088,299.795 253,295.5C 252.918,300.495 252.918,305.495 253,310.5C 254.079,312.394 255.413,312.727 257,311.5C 257.333,307.5 257.667,303.5 258,299.5C 258.388,303.219 259.055,306.886 260,310.5C 260.671,311.252 261.504,311.586 262.5,311.5 Z"/></g>
<g><path style="opacity:1" fill="#efe1bd" d="M 205.5,307.5 C 205.337,309.857 205.503,312.19 206,314.5C 206.708,313.619 207.542,312.953 208.5,312.5C 210.948,313.473 213.615,313.806 216.5,313.5C 216.5,314.167 216.5,314.833 216.5,315.5C 212.5,315.5 208.5,315.5 204.5,315.5C 204.194,312.615 204.527,309.948 205.5,307.5 Z"/></g>
<g><path style="opacity:1" fill="#efd38a" d="M 228.5,303.5 C 228.326,305.861 227.993,308.194 227.5,310.5C 228.822,310.67 229.989,310.337 231,309.5C 231.725,311.158 232.892,311.658 234.5,311C 233.228,309.754 232.895,308.587 233.5,307.5C 234.684,309.046 235.684,310.713 236.5,312.5C 237.48,311.019 238.647,309.685 240,308.5C 240.625,311.706 242.291,312.706 245,311.5C 244.97,308.639 245.803,306.305 247.5,304.5C 246.314,306.874 246.314,309.208 247.5,311.5C 243.958,313.007 240.292,314.007 236.5,314.5C 235.833,314.5 235.167,314.5 234.5,314.5C 232.776,312.838 230.609,311.838 228,311.5C 226.403,313.961 224.57,314.127 222.5,312C 226.226,310.957 225.893,310.457 221.5,310.5C 221.22,313.388 222.553,314.888 225.5,315C 223.1,315.186 220.766,315.686 218.5,316.5C 217.717,318.288 216.384,319.288 214.5,319.5C 215.6,318.395 216.267,317.062 216.5,315.5C 216.5,314.833 216.5,314.167 216.5,313.5C 217.688,314.684 218.855,314.684 220,313.5C 220.456,312.256 219.956,311.423 218.5,311C 220.937,309.625 223.603,309.125 226.5,309.5C 226.595,307.214 227.262,305.214 228.5,303.5 Z"/></g>
<g><path style="opacity:1" fill="#efd388" d="M 283.5,309.5 C 289.203,308.178 292.869,310.178 294.5,315.5C 293.957,315.56 293.624,315.893 293.5,316.5C 299.765,320.025 300.099,324.025 294.5,328.5C 294.682,326.325 295.349,324.325 296.5,322.5C 295.058,320.153 293.724,317.82 292.5,315.5C 285.939,314.929 280.105,316.596 275,320.5C 274.5,320 274,319.5 273.5,319C 269.167,318.333 264.833,318.333 260.5,319C 259.646,320.022 258.646,320.855 257.5,321.5C 256.702,321.043 256.369,320.376 256.5,319.5C 258.973,319.396 259.639,318.396 258.5,316.5C 256.956,316.256 255.123,316.256 253,316.5C 251.745,315.789 250.579,314.956 249.5,314C 249.833,313.833 250.167,313.667 250.5,313.5C 253.5,314.833 256.5,314.833 259.5,313.5C 260.429,314.689 260.762,316.022 260.5,317.5C 264.5,317.5 268.5,317.5 272.5,317.5C 272.285,315.821 272.952,314.821 274.5,314.5C 270.47,313.891 266.47,312.891 262.5,311.5C 262.842,310.662 263.508,310.328 264.5,310.5C 265.779,311.968 267.446,312.635 269.5,312.5C 269.312,310.897 269.812,309.563 271,308.5C 271.492,309.549 271.326,310.549 270.5,311.5C 271.833,312.833 273.167,312.833 274.5,311.5C 275.721,307.661 276.388,307.661 276.5,311.5C 279.067,311.279 281.401,310.612 283.5,309.5 Z"/></g>
<g><path style="opacity:1" fill="#efeadd" d="M 285.5,311.5 C 285.735,310.903 286.235,310.57 287,310.5C 288.5,311 290,311.5 291.5,312C 292.711,312.893 292.711,313.726 291.5,314.5C 290.707,314.069 289.873,313.735 289,313.5C 285.299,314.504 281.633,315.504 278,316.5C 277.5,315.5 277,314.5 276.5,313.5C 278.608,312.645 280.774,311.978 283,311.5C 283.945,311.905 284.612,312.572 285,313.5C 287.665,312.526 287.831,311.859 285.5,311.5 Z"/></g>
<g><path style="opacity:1" fill="#efece6" d="M 234.5,314.5 C 235.167,314.5 235.833,314.5 236.5,314.5C 236.5,315.833 236.5,317.167 236.5,318.5C 241.167,318.5 245.833,318.5 250.5,318.5C 252.133,322.458 253.8,322.458 255.5,318.5C 256.107,318.624 256.44,318.957 256.5,319.5C 256.369,320.376 256.702,321.043 257.5,321.5C 258.646,320.855 259.646,320.022 260.5,319C 264.833,318.333 269.167,318.333 273.5,319C 274,319.5 274.5,320 275,320.5C 280.105,316.596 285.939,314.929 292.5,315.5C 293.724,317.82 295.058,320.153 296.5,322.5C 295.349,324.325 294.682,326.325 294.5,328.5C 294.5,329.833 293.833,330.5 292.5,330.5C 267.78,334.615 243.113,334.448 218.5,330C 217.089,327.918 215.422,326.084 213.5,324.5C 210.537,322.22 210.87,320.553 214.5,319.5C 216.384,319.288 217.717,318.288 218.5,316.5C 220.766,315.686 223.1,315.186 225.5,315C 222.553,314.888 221.22,313.388 221.5,310.5C 225.893,310.457 226.226,310.957 222.5,312C 224.57,314.127 226.403,313.961 228,311.5C 230.609,311.838 232.776,312.838 234.5,314.5 Z"/></g>
<g><path style="opacity:1" fill="#efd9a0" d="M 234.5,314.5 C 234.657,315.873 234.49,317.207 234,318.5C 231.553,317.594 229.053,316.761 226.5,316C 229.254,315.728 231.921,315.228 234.5,314.5 Z"/></g>
<g><path style="opacity:1" fill="#efeeec" d="M 274.5,314.5 C 276.852,315.543 277.019,316.876 275,318.5C 273.232,317.318 273.065,315.985 274.5,314.5 Z"/></g>
<g><path style="opacity:1" fill="#eecf79" d="M 236.5,314.5 C 237.267,315.172 237.934,316.005 238.5,317C 242.423,317.793 246.256,317.626 250,316.5C 250.464,317.094 250.631,317.761 250.5,318.5C 245.833,318.5 241.167,318.5 236.5,318.5C 236.5,317.167 236.5,315.833 236.5,314.5 Z"/></g>
<g><path style="opacity:1" fill="#efd48c" d="M 278.5,322.5 C 278.56,321.957 278.893,321.624 279.5,321.5C 280.823,323.682 282.49,324.349 284.5,323.5C 285.5,324 286.5,324.5 287.5,325C 283.828,326.642 279.995,327.809 276,328.5C 274.422,327.289 274.255,325.955 275.5,324.5C 277.297,327.096 278.631,326.763 279.5,323.5C 279.376,322.893 279.043,322.56 278.5,322.5 Z"/></g>
<g><path style="opacity:1" fill="#efdba6" d="M 221.5,317.5 C 223.056,318.291 224.39,318.624 225.5,318.5C 224.833,320.167 224.167,321.833 223.5,323.5C 225.893,325.738 228.06,325.738 230,323.5C 230.436,325.936 229.603,327.936 227.5,329.5C 226.289,328.726 226.289,327.893 227.5,327C 226.258,326.689 225.258,327.189 224.5,328.5C 223.328,328.081 222.328,327.415 221.5,326.5C 222.357,323.549 222.357,320.549 221.5,317.5 Z"/></g>
<g><path style="opacity:1" fill="#efdba7" d="M 235.5,323.5 C 238.797,323.329 239.131,323.995 236.5,325.5C 237.025,326.192 237.692,326.692 238.5,327C 236.26,327.977 233.927,328.477 231.5,328.5C 230.945,324.416 231.945,323.749 234.5,326.5C 235.386,325.675 235.719,324.675 235.5,323.5 Z"/></g>
<g><path style="opacity:1" fill="#efd799" d="M 249.5,325.5 C 252.742,325.571 255.575,326.571 258,328.5C 258.826,326.595 259.993,326.261 261.5,327.5C 258.946,329.852 256.28,329.852 253.5,327.5C 252.5,327.667 251.5,327.833 250.5,328C 251.833,328.333 253.167,328.667 254.5,329C 252.167,329.667 249.833,329.667 247.5,329C 246.327,325.89 246.827,325.723 249,328.5C 249.483,327.552 249.649,326.552 249.5,325.5 Z"/></g>
<g><path style="opacity:1" fill="#f0daa5" d="M 264.5,322.5 C 265.451,323.919 265.784,325.585 265.5,327.5C 268.598,327.413 268.932,327.913 266.5,329C 267.609,330.813 266.942,331.646 264.5,331.5C 263.905,328.654 263.905,325.654 264.5,322.5 Z"/></g>
<g><path style="opacity:1" fill="#efd799" d="M 213.5,324.5 C 215.422,326.084 217.089,327.918 218.5,330C 243.113,334.448 267.78,334.615 292.5,330.5C 292.082,331.222 291.416,331.722 290.5,332C 266.826,335.318 243.16,335.318 219.5,332C 216.19,330.533 214.19,328.033 213.5,324.5 Z"/></g>
<g><path style="opacity:1" fill="#616161" d="M 13.5,339.5 C 126.5,339.5 239.5,339.5 352.5,339.5C 400.833,339.5 449.167,339.5 497.5,339.5C 497.737,340.791 497.404,341.791 496.5,342.5C 448.845,340.505 400.845,339.838 352.5,340.5C 239.495,339.835 126.828,340.502 14.5,342.5C 13.596,341.791 13.2627,340.791 13.5,339.5 Z"/></g>
<g><path style="opacity:1" fill="#151515" d="M 352.5,340.5 C 347.839,380.143 338.006,418.476 323,455.5C 313.735,477.04 299.901,495.04 281.5,509.5C 281.5,509.833 281.5,510.167 281.5,510.5C 279.901,510.232 278.568,510.566 277.5,511.5C 262.5,511.5 247.5,511.5 232.5,511.5C 218.645,509.862 204.978,507.196 191.5,503.5C 189.485,502.076 187.152,501.41 184.5,501.5C 182.485,500.076 180.152,499.41 177.5,499.5C 175.035,499.233 172.701,498.566 170.5,497.5C 169.365,495.787 167.698,495.12 165.5,495.5C 154.742,491.618 144.409,486.952 134.5,481.5C 134.027,480.094 133.027,479.427 131.5,479.5C 129.847,479.34 128.514,478.674 127.5,477.5C 127.027,476.094 126.027,475.427 124.5,475.5C 122.326,475.25 120.659,474.25 119.5,472.5C 119.027,471.094 118.027,470.427 116.5,470.5C 116.027,469.094 115.027,468.427 113.5,468.5C 113.027,467.094 112.027,466.427 110.5,466.5C 106.268,464.6 102.601,461.933 99.5,458.5C 98.4154,456.413 96.7488,455.08 94.5,454.5C 91.5726,453.243 89.2393,451.243 87.5,448.5C 86.0892,446.086 84.0892,444.419 81.5,443.5C 76.1667,438.833 71.1667,433.833 66.5,428.5C 65.9202,426.251 64.5869,424.585 62.5,423.5C 60.8333,422.5 59.5,421.167 58.5,419.5C 58.573,417.973 57.9063,416.973 56.5,416.5C 53.3637,413.571 50.697,410.238 48.5,406.5C 48.4456,404.368 47.4456,403.035 45.5,402.5C 42.7795,399.106 40.4462,395.439 38.5,391.5C 38.573,389.973 37.9063,388.973 36.5,388.5C 35.6618,388.158 35.3284,387.492 35.5,386.5C 35.573,384.973 34.9063,383.973 33.5,383.5C 28.1317,375.43 23.7983,366.763 20.5,357.5C 20.5979,355.447 19.9313,353.78 18.5,352.5C 18.5979,350.447 17.9313,348.78 16.5,347.5C 16.5979,345.447 15.9313,343.78 14.5,342.5C 126.828,340.502 239.495,339.835 352.5,340.5 Z"/></g>
<g><path style="opacity:1" fill="#0d0d0d" d="M 352.5,340.5 C 400.845,339.838 448.845,340.505 496.5,342.5C 495.069,343.78 494.402,345.447 494.5,347.5C 473.979,401.198 439.312,443.364 390.5,474C 387.09,476.372 383.423,478.205 379.5,479.5C 377.973,479.427 376.973,480.094 376.5,481.5C 367.317,486.789 357.65,491.122 347.5,494.5C 345.447,494.402 343.78,495.069 342.5,496.5C 337.5,498.943 332.166,500.61 326.5,501.5C 323.848,501.41 321.515,502.076 319.5,503.5C 311.809,506.085 303.809,507.751 295.5,508.5C 290.807,508.54 286.141,508.873 281.5,509.5C 299.901,495.04 313.735,477.04 323,455.5C 338.006,418.476 347.839,380.143 352.5,340.5 Z"/></g>
<g><path style="opacity:0.631" fill="#9b9b9b" d="M 14.5,342.5 C 15.9313,343.78 16.5979,345.447 16.5,347.5C 15.0687,346.22 14.4021,344.553 14.5,342.5 Z"/></g>
<g><path style="opacity:0.659" fill="#959595" d="M 496.5,342.5 C 496.598,344.553 495.931,346.22 494.5,347.5C 494.402,345.447 495.069,343.78 496.5,342.5 Z"/></g>
<g><path style="opacity:0.667" fill="#9b9b9b" d="M 16.5,347.5 C 17.9313,348.78 18.5979,350.447 18.5,352.5C 17.0687,351.22 16.4021,349.553 16.5,347.5 Z"/></g>
<g><path style="opacity:0.667" fill="#969696" d="M 18.5,352.5 C 19.9313,353.78 20.5979,355.447 20.5,357.5C 19.0687,356.22 18.4021,354.553 18.5,352.5 Z"/></g>
<g><path style="opacity:0.275" fill="#b3b3b3" d="M 33.5,383.5 C 34.9063,383.973 35.573,384.973 35.5,386.5C 34.0937,386.027 33.427,385.027 33.5,383.5 Z"/></g>
<g><path style="opacity:0.259" fill="#9e9e9e" d="M 36.5,388.5 C 37.9063,388.973 38.573,389.973 38.5,391.5C 37.0937,391.027 36.427,390.027 36.5,388.5 Z"/></g>
<g><path style="opacity:0.996" fill="#828282" d="M 45.5,402.5 C 47.4456,403.035 48.4456,404.368 48.5,406.5C 47.0256,405.564 46.0256,404.23 45.5,402.5 Z"/></g>
<g><path style="opacity:0.024" fill="#c7c7c7" d="M 56.5,416.5 C 57.9063,416.973 58.573,417.973 58.5,419.5C 57.0937,419.027 56.427,418.027 56.5,416.5 Z"/></g>
<g><path style="opacity:0.039" fill="#6f6f6f" d="M 62.5,423.5 C 64.5869,424.585 65.9202,426.251 66.5,428.5C 64.4131,427.415 63.0798,425.749 62.5,423.5 Z"/></g>
<g><path style="opacity:0.988" fill="#8c8c8c" d="M 81.5,443.5 C 84.0892,444.419 86.0892,446.086 87.5,448.5C 84.9108,447.581 82.9108,445.914 81.5,443.5 Z"/></g>
<g><path style="opacity:0.682" fill="#888888" d="M 94.5,454.5 C 96.7488,455.08 98.4154,456.413 99.5,458.5C 97.2512,457.92 95.5846,456.587 94.5,454.5 Z"/></g>
<g><path style="opacity:0.827" fill="#898989" d="M 110.5,466.5 C 112.027,466.427 113.027,467.094 113.5,468.5C 111.973,468.573 110.973,467.906 110.5,466.5 Z"/></g>
<g><path style="opacity:0.78" fill="#878787" d="M 113.5,468.5 C 115.027,468.427 116.027,469.094 116.5,470.5C 114.973,470.573 113.973,469.906 113.5,468.5 Z"/></g>
<g><path style="opacity:0.733" fill="#7d7d7d" d="M 116.5,470.5 C 118.027,470.427 119.027,471.094 119.5,472.5C 117.973,472.573 116.973,471.906 116.5,470.5 Z"/></g>
<g><path style="opacity:0.529" fill="#959595" d="M 124.5,475.5 C 126.027,475.427 127.027,476.094 127.5,477.5C 125.973,477.573 124.973,476.906 124.5,475.5 Z"/></g>
<g><path style="opacity:0.475" fill="#a7a7a7" d="M 131.5,479.5 C 133.027,479.427 134.027,480.094 134.5,481.5C 132.973,481.573 131.973,480.906 131.5,479.5 Z"/></g>
<g><path style="opacity:0.008" fill="#c4c4c4" d="M 379.5,479.5 C 379.027,480.906 378.027,481.573 376.5,481.5C 376.973,480.094 377.973,479.427 379.5,479.5 Z"/></g>
<g><path style="opacity:0.992" fill="#8c8c8c" d="M 165.5,495.5 C 167.698,495.12 169.365,495.787 170.5,497.5C 168.597,497.204 166.93,496.537 165.5,495.5 Z"/></g>
<g><path style="opacity:0.349" fill="#a5a5a5" d="M 347.5,494.5 C 346.22,495.931 344.553,496.598 342.5,496.5C 343.78,495.069 345.447,494.402 347.5,494.5 Z"/></g>
<g><path style="opacity:0.988" fill="#7e7e7e" d="M 177.5,499.5 C 180.152,499.41 182.485,500.076 184.5,501.5C 181.848,501.59 179.515,500.924 177.5,499.5 Z"/></g>
<g><path style="opacity:0.988" fill="#7d7d7d" d="M 184.5,501.5 C 187.152,501.41 189.485,502.076 191.5,503.5C 188.848,503.59 186.515,502.924 184.5,501.5 Z"/></g>
<g><path style="opacity:0.012" fill="#aaaaaa" d="M 326.5,501.5 C 324.485,502.924 322.152,503.59 319.5,503.5C 321.515,502.076 323.848,501.41 326.5,501.5 Z"/></g>
<g><path style="opacity:0.812" fill="#8b8b8b" d="M 295.5,508.5 C 291.036,509.644 286.37,510.31 281.5,510.5C 281.5,510.167 281.5,509.833 281.5,509.5C 286.141,508.873 290.807,508.54 295.5,508.5 Z"/></g>
</svg>
