<?xml version="1.0" encoding="UTF-8"?>
<!DOCTYPE svg PUBLIC "-//W3C//DTD SVG 1.1//EN" "http://www.w3.org/Graphics/SVG/1.1/DTD/svg11.dtd">
<svg xmlns="http://www.w3.org/2000/svg" version="1.1" width="512px" height="512px" style="shape-rendering:geometricPrecision; text-rendering:geometricPrecision; image-rendering:optimizeQuality; fill-rule:evenodd; clip-rule:evenodd" xmlns:xlink="http://www.w3.org/1999/xlink">
<g><path style="opacity:0.996" fill="#e1382d" d="M 398.5,199.5 C 303.001,200.499 207.335,200.833 111.5,200.5C 138.852,137.8 186.852,104.8 255.5,101.5C 313.929,103.507 358.429,129.174 389,178.5C 392.727,185.284 395.894,192.284 398.5,199.5 Z"/></g>
<g><path style="opacity:1" fill="#e1453a" d="M 398.5,199.5 C 399.338,199.842 399.672,200.508 399.5,201.5C 303.5,201.5 207.5,201.5 111.5,201.5C 111.5,201.167 111.5,200.833 111.5,200.5C 207.335,200.833 303.001,200.499 398.5,199.5 Z"/></g>
<g><path style="opacity:0.997" fill="#f0f0f0" d="M 111.5,201.5 C 207.5,201.5 303.5,201.5 399.5,201.5C 412.833,237.5 412.833,273.5 399.5,309.5C 303.5,309.5 207.5,309.5 111.5,309.5C 98.1667,273.5 98.1667,237.5 111.5,201.5 Z"/></g>
<g><path style="opacity:1" fill="#1e8458" d="M 310.5,229.5 C 312.332,230.14 312.665,231.14 311.5,232.5C 309.481,231.867 309.147,230.867 310.5,229.5 Z"/></g>
<g><path style="opacity:1" fill="#167e50" d="M 221.5,233.5 C 222.376,233.369 223.043,233.702 223.5,234.5C 221.747,237.005 220.247,239.671 219,242.5C 214.384,244.782 210.717,248.116 208,252.5C 206.815,258.13 205.815,263.797 205,269.5C 203.971,272.875 201.804,274.042 198.5,273C 196.242,270.233 193.575,268.066 190.5,266.5C 185.733,270.437 181.399,274.937 177.5,280C 173.625,281.52 169.625,281.854 165.5,281C 167.167,280 168.833,279 170.5,278C 176.531,271.634 182.864,265.634 189.5,260C 190.5,259.333 191.5,259.333 192.5,260C 195.424,262.952 198.758,265.119 202.5,266.5C 202.959,259.757 203.792,253.091 205,246.5C 210.66,242.268 216.16,237.934 221.5,233.5 Z"/></g>
<g><path style="opacity:1" fill="#3e926b" d="M 307.5,233.5 C 309.928,234.39 312.262,234.723 314.5,234.5C 311.533,238.622 309.2,238.289 307.5,233.5 Z"/></g>
<g><path style="opacity:1" fill="#157e4f" d="M 143.5,240.5 C 145.806,244.085 147.139,248.085 147.5,252.5C 152.179,252.334 156.845,252.501 161.5,253C 157.529,255.142 154.195,257.976 151.5,261.5C 152.399,264.697 153.399,267.864 154.5,271C 154.15,272.257 153.483,272.591 152.5,272C 149.667,269.833 146.833,267.667 144,265.5C 140.667,268.167 137.333,270.833 134,273.5C 134.387,269.647 135.22,265.814 136.5,262C 133.684,258.564 130.351,255.564 126.5,253C 130.833,252.667 135.167,252.333 139.5,252C 141.131,248.272 142.465,244.439 143.5,240.5 Z"/></g>
<g><path style="opacity:1" fill="#137d4d" d="M 311.5,240.5 C 312.33,250.325 312.83,260.325 313,270.5C 317.291,272.565 319.957,271.232 321,266.5C 321.333,259.833 321.667,253.167 322,246.5C 323.333,245.167 324.667,243.833 326,242.5C 326.831,250.888 326.497,259.221 325,267.5C 321.812,275.678 316.312,277.678 308.5,273.5C 298.241,280.624 292.074,277.958 290,265.5C 283.479,270.333 281.146,268.666 283,260.5C 285.86,255.395 289.86,251.395 295,248.5C 295.333,255.5 295.667,262.5 296,269.5C 299.843,273.729 303.177,273.395 306,268.5C 306.333,260.833 306.667,253.167 307,245.5C 308.707,243.963 310.207,242.296 311.5,240.5 Z"/></g>
<g><path style="opacity:1" fill="#167e4f" d="M 366.5,240.5 C 368.438,244.125 370.105,247.959 371.5,252C 375.833,252.333 380.167,252.667 384.5,253C 380.529,255.142 377.195,257.976 374.5,261.5C 375.399,264.697 376.399,267.864 377.5,271C 377.167,271.5 376.833,272 376.5,272.5C 373.244,270.289 370.078,267.955 367,265.5C 363.667,268.167 360.333,270.833 357,273.5C 357.387,269.647 358.22,265.814 359.5,262C 356.684,258.564 353.351,255.564 349.5,253C 353.833,252.667 358.167,252.333 362.5,252C 364.131,248.272 365.465,244.439 366.5,240.5 Z"/></g>
<g><path style="opacity:1" fill="#187e50" d="M 254.5,240.5 C 256.717,243.777 258.384,247.444 259.5,251.5C 263.796,252.328 268.129,252.828 272.5,253C 268.941,255.606 265.607,258.44 262.5,261.5C 264.208,265.446 265.375,269.446 266,273.5C 262.719,270.781 259.219,268.447 255.5,266.5C 251.616,268.21 248.116,270.543 245,273.5C 245.606,269.252 246.772,265.086 248.5,261C 245.01,258.089 241.344,255.422 237.5,253C 242.155,252.501 246.821,252.334 251.5,252.5C 252.5,248.501 253.5,244.501 254.5,240.5 Z"/></g>
<g><path style="opacity:1" fill="#0b7b4b" d="M 337.5,241.5 C 338.162,243.304 338.495,245.304 338.5,247.5C 337.889,255.493 337.389,263.493 337,271.5C 335.667,272.833 334.333,274.167 333,275.5C 332.333,266.167 332.333,256.833 333,247.5C 334.332,245.34 335.832,243.34 337.5,241.5 Z"/></g>
<g><path style="opacity:1" fill="#1e8357" d="M 221.5,242.5 C 222.801,244.456 222.301,246.123 220,247.5C 219.878,245.718 220.378,244.052 221.5,242.5 Z"/></g>
<g><path style="opacity:1" fill="#067949" d="M 222.5,247.5 C 223.656,255.323 223.823,263.323 223,271.5C 222,272.833 221,274.167 220,275.5C 219.333,267.167 219.333,258.833 220,250.5C 221.045,249.627 221.878,248.627 222.5,247.5 Z"/></g>
<g><path style="opacity:1" fill="#358c62" d="M 189.5,271.5 C 194.378,272.83 194.545,274.83 190,277.5C 188.566,277.07 187.399,276.236 186.5,275C 187.71,273.961 188.71,272.794 189.5,271.5 Z"/></g>
<g><path style="opacity:0.989" fill="#000000" d="M 111.5,309.5 C 207.5,309.5 303.5,309.5 399.5,309.5C 372.673,372.942 324.673,406.276 255.5,409.5C 186.327,406.276 138.327,372.942 111.5,309.5 Z"/></g>
</svg>
