<?xml version="1.0" encoding="UTF-8"?>
<!DOCTYPE svg PUBLIC "-//W3C//DTD SVG 1.1//EN" "http://www.w3.org/Graphics/SVG/1.1/DTD/svg11.dtd">
<svg xmlns="http://www.w3.org/2000/svg" version="1.1" width="512px" height="512px" style="shape-rendering:geometricPrecision; text-rendering:geometricPrecision; image-rendering:optimizeQuality; fill-rule:evenodd; clip-rule:evenodd" xmlns:xlink="http://www.w3.org/1999/xlink">
<g><path style="opacity:0.998" fill="#6ca444" d="M 232.5,-0.5 C 247.833,-0.5 263.167,-0.5 278.5,-0.5C 368.144,10.3879 435.644,54.7213 481,132.5C 486.908,143.068 491.741,154.068 495.5,165.5C 386.001,166.499 276.335,166.833 166.5,166.5C 135.473,136.14 104.806,105.473 74.5,74.5C 118.063,30.7222 170.73,5.72218 232.5,-0.5 Z"/></g>
<g><path style="opacity:1" fill="#000000" d="M 74.5,74.5 C 104.806,105.473 135.473,136.14 166.5,166.5C 166.5,225.833 166.5,285.167 166.5,344.5C 135.473,374.86 104.806,405.527 74.5,436.5C 30.7215,392.936 5.72145,340.269 -0.5,278.5C -0.5,263.167 -0.5,247.833 -0.5,232.5C 5.72145,170.731 30.7215,118.064 74.5,74.5 Z"/></g>
<g><path style="opacity:0.999" fill="#f0f0f0" d="M 495.5,165.5 C 503.827,187.14 509.16,209.474 511.5,232.5C 511.5,247.833 511.5,263.167 511.5,278.5C 508.816,300.903 503.816,322.903 496.5,344.5C 386.5,344.5 276.5,344.5 166.5,344.5C 166.5,285.167 166.5,225.833 166.5,166.5C 276.335,166.833 386.001,166.499 495.5,165.5 Z"/></g>
<g><path style="opacity:0.996" fill="#d70027" d="M 166.5,344.5 C 276.5,344.5 386.5,344.5 496.5,344.5C 462.341,429.824 400.675,483.657 311.5,506C 300.101,508.336 288.768,510.17 277.5,511.5C 262.5,511.5 247.5,511.5 232.5,511.5C 170.73,505.278 118.063,480.278 74.5,436.5C 104.806,405.527 135.473,374.86 166.5,344.5 Z"/></g>
</svg>
