<?xml version="1.0" encoding="UTF-8"?>
<!DOCTYPE svg PUBLIC "-//W3C//DTD SVG 1.1//EN" "http://www.w3.org/Graphics/SVG/1.1/DTD/svg11.dtd">
<svg xmlns="http://www.w3.org/2000/svg" version="1.1" width="512px" height="512px" style="shape-rendering:geometricPrecision; text-rendering:geometricPrecision; image-rendering:optimizeQuality; fill-rule:evenodd; clip-rule:evenodd" xmlns:xlink="http://www.w3.org/1999/xlink">
<g><path style="opacity:0.996" fill="#d70027" d="M 232.5,-0.5 C 247.833,-0.5 263.167,-0.5 278.5,-0.5C 368.144,10.3879 435.644,54.7213 481,132.5C 497.695,163.971 507.861,197.304 511.5,232.5C 511.5,247.833 511.5,263.167 511.5,278.5C 500.612,368.144 456.279,435.644 378.5,481C 347.029,497.695 313.696,507.861 278.5,511.5C 263.167,511.5 247.833,511.5 232.5,511.5C 142.856,500.612 75.3562,456.279 30,378.5C 13.3053,347.029 3.1386,313.696 -0.5,278.5C -0.5,263.167 -0.5,247.833 -0.5,232.5C 10.3875,142.857 54.7208,75.3573 132.5,30C 163.971,13.3053 197.304,3.1386 232.5,-0.5 Z"/></g>
<g><path style="opacity:1" fill="#6da343" d="M 254.5,101.5 C 255.497,101.47 256.164,101.97 256.5,103C 268.344,138.365 279.677,173.865 290.5,209.5C 329.168,209.333 367.835,209.5 406.5,210C 375.2,232.306 344.2,254.972 313.5,278C 325.236,314.204 336.736,350.371 348,386.5C 317.078,364.289 286.245,341.956 255.5,319.5C 224.755,341.956 193.922,364.289 163,386.5C 174.264,350.371 185.764,314.204 197.5,278C 166.8,254.972 135.8,232.306 104.5,210C 143.165,209.5 181.832,209.333 220.5,209.5C 231.629,173.445 242.963,137.445 254.5,101.5 Z"/></g>
<g><path style="opacity:1" fill="#d41027" d="M 254.5,172.5 C 255.497,172.47 256.164,172.97 256.5,174C 260.274,185.821 263.941,197.655 267.5,209.5C 259.5,209.5 251.5,209.5 243.5,209.5C 247.369,197.226 251.036,184.893 254.5,172.5 Z"/></g>
<g><path style="opacity:1" fill="#ad4232" d="M 211.5,234.5 C 199.545,232.52 187.212,231.854 174.5,232.5C 186.419,231.501 199.086,231.168 212.5,231.5C 212.737,232.791 212.404,233.791 211.5,234.5 Z"/></g>
<g><path style="opacity:1" fill="#ac4432" d="M 336.5,233.5 C 330.509,232.834 324.343,232.5 318,232.5C 311.462,232.504 305.295,233.17 299.5,234.5C 298.596,233.791 298.263,232.791 298.5,231.5C 311.517,231.168 324.517,231.501 337.5,232.5C 337.376,233.107 337.043,233.44 336.5,233.5 Z"/></g>
<g><path style="opacity:1" fill="#d50b27" d="M 174.5,232.5 C 187.212,231.854 199.545,232.52 211.5,234.5C 209.643,241.573 207.476,248.573 205,255.5C 194.649,247.97 184.483,240.303 174.5,232.5 Z"/></g>
<g><path style="opacity:1" fill="#d60727" d="M 235.5,231.5 C 248.85,231.167 262.183,231.501 275.5,232.5C 279.67,244.836 283.503,257.169 287,269.5C 276.65,276.839 266.316,284.172 256,291.5C 246.257,285.377 236.757,278.877 227.5,272C 225.876,270.883 224.876,269.383 224.5,267.5C 228.173,255.482 231.84,243.482 235.5,231.5 Z"/></g>
<g><path style="opacity:1" fill="#d60827" d="M 336.5,233.5 C 326.591,240.373 316.757,247.373 307,254.5C 303.837,248.189 301.337,241.522 299.5,234.5C 305.295,233.17 311.462,232.504 318,232.5C 324.343,232.5 330.509,232.834 336.5,233.5 Z"/></g>
<g><path style="opacity:1" fill="#d31228" d="M 216.5,291.5 C 223.314,296.079 229.981,300.913 236.5,306C 226.167,313.5 215.833,321 205.5,328.5C 208.347,316.149 212.014,303.816 216.5,291.5 Z"/></g>
<g><path style="opacity:1" fill="#d41128" d="M 293.5,291.5 C 298.184,303.205 302.517,315.205 306.5,327.5C 306.167,327.833 305.833,328.167 305.5,328.5C 295.167,321 284.833,313.5 274.5,306C 280.902,301.146 287.235,296.313 293.5,291.5 Z"/></g>
</svg>
