<?xml version="1.0" encoding="UTF-8"?>
<!DOCTYPE svg PUBLIC "-//W3C//DTD SVG 1.1//EN" "http://www.w3.org/Graphics/SVG/1.1/DTD/svg11.dtd">
<svg xmlns="http://www.w3.org/2000/svg" version="1.1" width="512px" height="512px" style="shape-rendering:geometricPrecision; text-rendering:geometricPrecision; image-rendering:optimizeQuality; fill-rule:evenodd; clip-rule:evenodd" xmlns:xlink="http://www.w3.org/1999/xlink">
<g><path style="opacity:0.998" fill="#3d9635" d="M 232.5,-0.5 C 247.833,-0.5 263.167,-0.5 278.5,-0.5C 368.144,10.3879 435.644,54.7213 481,132.5C 497.695,163.971 507.861,197.304 511.5,232.5C 511.5,247.833 511.5,263.167 511.5,278.5C 500.612,368.144 456.279,435.644 378.5,481C 347.029,497.695 313.696,507.861 278.5,511.5C 263.167,511.5 247.833,511.5 232.5,511.5C 142.856,500.612 75.3562,456.279 30,378.5C 13.3053,347.029 3.1386,313.696 -0.5,278.5C -0.5,263.167 -0.5,247.833 -0.5,232.5C 10.3875,142.857 54.7208,75.3573 132.5,30C 163.971,13.3053 197.304,3.1386 232.5,-0.5 Z"/></g>
<g><path style="opacity:1" fill="#eff6ee" d="M 208.5,121.5 C 209.586,121.62 210.253,122.287 210.5,123.5C 208.478,126.524 207.478,129.857 207.5,133.5C 208.5,133.5 209.5,133.5 210.5,133.5C 209.598,138.643 207.098,139.643 203,136.5C 202.166,130.502 203.999,125.502 208.5,121.5 Z"/></g>
<g><path style="opacity:1" fill="#f6faf6" d="M 232.5,123.5 C 233.5,123.5 234.5,123.5 235.5,123.5C 235.725,128.248 235.225,132.915 234,137.5C 233.803,139.861 232.636,141.528 230.5,142.5C 228.832,135.817 229.498,129.484 232.5,123.5 Z"/></g>
<g><path style="opacity:1" fill="#f9fcf9" d="M 309.5,198.5 C 309.217,197.711 308.717,197.044 308,196.5C 307.195,199.696 307.362,202.696 308.5,205.5C 308.667,219.171 308.5,232.837 308,246.5C 306.982,251.211 304.482,254.878 300.5,257.5C 299.667,236.841 299.167,216.175 299,195.5C 298.609,189.137 297.942,182.803 297,176.5C 288.667,163.167 280.333,149.833 272,136.5C 272.209,140.459 270.375,142.126 266.5,141.5C 267.571,147.921 269.071,154.255 271,160.5C 272.126,161.944 273.626,162.61 275.5,162.5C 278.174,161.485 280.841,160.485 283.5,159.5C 283.688,166.13 281.021,171.13 275.5,174.5C 273.271,172.901 272.938,170.901 274.5,168.5C 272.741,167.246 271.241,167.579 270,169.5C 267.508,178.161 262.008,181.161 253.5,178.5C 251.766,175.644 249.599,173.311 247,171.5C 242.964,173.522 239.464,176.356 236.5,180C 229.428,183.314 224.261,181.481 221,174.5C 220.084,167.741 219.084,161.074 218,154.5C 215.546,161.066 213.212,167.733 211,174.5C 207.021,178.644 203.355,178.31 200,173.5C 194.849,163.102 193.183,152.102 195,140.5C 196.731,136.665 198.065,136.998 199,141.5C 199.871,147.521 200.871,153.521 202,159.5C 202.412,161.997 203.578,163.997 205.5,165.5C 208.098,156.553 211.598,147.887 216,139.5C 217.484,135.983 219.984,134.149 223.5,134C 224.333,134.833 225.167,135.667 226,136.5C 226.333,144.833 226.667,153.167 227,161.5C 232.347,169.643 237.347,169.31 242,160.5C 243.03,151.315 242.197,142.315 239.5,133.5C 242.775,118.941 245.942,118.941 249,133.5C 249.915,142.147 250.582,150.814 251,159.5C 252.651,166.951 256.317,168.285 262,163.5C 262.859,155.407 260.859,148.073 256,141.5C 254.964,136.574 255.464,131.907 257.5,127.5C 259.527,125.661 261.86,125.161 264.5,126C 267.057,128.892 269.224,132.059 271,135.5C 271.333,131.833 271.667,128.167 272,124.5C 272.561,123.978 273.228,123.645 274,123.5C 280.557,126.721 285.89,131.387 290,137.5C 290.87,123.218 294.536,122.218 301,134.5C 304.412,140.219 306.245,146.219 306.5,152.5C 304.895,151.413 304.229,152.079 304.5,154.5C 305.497,161.146 306.331,167.812 307,174.5C 315.782,189.729 323.782,205.396 331,221.5C 331.909,227.612 331.576,233.612 330,239.5C 323.169,225.838 316.336,212.171 309.5,198.5 Z"/></g>
<g><path style="opacity:1" fill="#fafcf9" d="M 431.5,235.5 C 431.013,234.527 430.513,233.527 430,232.5C 429.192,236.027 429.359,239.36 430.5,242.5C 431.512,258.487 431.679,274.487 431,290.5C 429.593,310.913 418.759,320.747 398.5,320C 397.483,318.951 397.316,317.784 398,316.5C 402.727,312.219 407.894,308.552 413.5,305.5C 417.62,301.589 420.453,296.923 422,291.5C 422.416,276.49 422.083,261.49 421,246.5C 420.667,246.167 420.333,245.833 420,245.5C 419.059,247.061 417.892,248.395 416.5,249.5C 415.843,234.115 414.843,218.782 413.5,203.5C 413.167,203.167 412.833,202.833 412.5,202.5C 409.286,215.985 407.786,215.651 408,201.5C 407.333,200.167 406.667,198.833 406,197.5C 405.667,211.833 405.333,226.167 405,240.5C 404.341,249.49 399.675,255.157 391,257.5C 385.549,255.517 381.049,252.184 377.5,247.5C 374.243,245.894 372.076,246.894 371,250.5C 369.92,255.899 368.587,261.232 367,266.5C 364.828,272.331 360.995,273.831 355.5,271C 344.456,260.695 341.789,248.528 347.5,234.5C 348.167,237.167 348.833,239.833 349.5,242.5C 349.758,247.364 350.925,252.03 353,256.5C 354.786,259.362 357.119,260.028 360,258.5C 363.653,248.36 368.486,238.86 374.5,230C 375.833,229.333 377.167,229.333 378.5,230C 381.037,232.906 383.204,236.073 385,239.5C 386.389,241.227 388.056,242.561 390,243.5C 390.772,243.355 391.439,243.022 392,242.5C 393.927,239.052 395.261,235.385 396,231.5C 396.044,212.153 395.377,192.82 394,173.5C 388.058,163.893 381.725,154.56 375,145.5C 369.878,123.382 373.878,120.715 387,137.5C 389.123,139.857 388.956,142.024 386.5,144C 386.93,145.434 387.764,146.601 389,147.5C 389.33,141.479 389.33,135.479 389,129.5C 389.845,126.588 391.512,125.588 394,126.5C 397.636,133.605 401.136,140.772 404.5,148C 403.993,150.341 402.826,150.841 401,149.5C 400.333,154.833 400.333,160.167 401,165.5C 404.081,171.331 407.415,176.998 411,182.5C 410.035,166.37 407.868,150.37 404.5,134.5C 404.666,131.153 406,128.319 408.5,126C 410.367,125.289 411.867,125.789 413,127.5C 415.396,132.689 417.396,138.023 419,143.5C 419.343,148.389 418.843,153.222 417.5,158C 417.954,163.556 418.787,169.056 420,174.5C 423,179.833 426,185.167 429,190.5C 429.49,191.793 429.657,193.127 429.5,194.5C 428.167,194.5 426.833,194.5 425.5,194.5C 425.671,199.196 426.171,203.863 427,208.5C 430.667,214.833 434.333,221.167 438,227.5C 438.831,233.859 438.664,240.193 437.5,246.5C 435.234,242.966 433.234,239.3 431.5,235.5 Z"/></g>
<g><path style="opacity:1" fill="#f4f9f4" d="M 83.5,125.5 C 87.5753,125.399 90.0753,127.399 91,131.5C 91.8616,136.578 90.8616,141.245 88,145.5C 87.6667,142.833 87.3333,140.167 87,137.5C 85.2576,134.6 83.7576,131.6 82.5,128.5C 82.685,127.416 83.0183,126.416 83.5,125.5 Z"/></g>
<g><path style="opacity:1" fill="#f6faf5" d="M 128.5,126.5 C 129.496,126.414 130.329,126.748 131,127.5C 132.297,138.034 128.13,141.034 118.5,136.5C 117.593,133.579 117.26,130.579 117.5,127.5C 118.5,127.5 119.5,127.5 120.5,127.5C 120.281,128.675 120.614,129.675 121.5,130.5C 124.063,126.358 125.896,126.691 127,131.5C 127.352,129.753 127.852,128.086 128.5,126.5 Z"/></g>
<g><path style="opacity:1" fill="#f6faf6" d="M 183.5,126.5 C 190.555,126.25 193.055,129.583 191,136.5C 190.535,137.931 189.701,139.097 188.5,140C 190.329,141.113 191.163,142.613 191,144.5C 185.573,151.931 179.407,158.764 172.5,165C 168.789,165.825 165.122,165.659 161.5,164.5C 168.792,157.709 175.959,150.709 183,143.5C 183.325,141.163 182.325,139.497 180,138.5C 179.333,135.5 179.333,132.5 180,129.5C 181.145,128.364 182.312,127.364 183.5,126.5 Z"/></g>
<g><path style="opacity:1" fill="#f8fbf7" d="M 345.5,126.5 C 349.528,132.869 353.362,139.535 357,146.5C 357.494,148.134 357.66,149.801 357.5,151.5C 356.167,151.5 354.833,151.5 353.5,151.5C 356.466,176.796 359.133,202.13 361.5,227.5C 362.365,236.558 360.032,244.558 354.5,251.5C 352.967,217.906 349.134,184.573 343,151.5C 342.333,145.5 342.333,139.5 343,133.5C 343.379,130.97 344.213,128.637 345.5,126.5 Z"/></g>
<g><path style="opacity:1" fill="#f9fcf9" d="M 104.5,127.5 C 107.091,128.254 108.924,129.921 110,132.5C 111.592,144.547 113.259,156.547 115,168.5C 116.545,169.821 117.711,169.488 118.5,167.5C 113.58,158.632 112.413,149.299 115,139.5C 116.938,138.14 118.604,138.473 120,140.5C 121.608,143.382 122.941,146.382 124,149.5C 124.333,155.167 124.667,160.833 125,166.5C 128.087,170.122 131.92,172.122 136.5,172.5C 136.649,169.393 136.149,166.393 135,163.5C 130.298,156.461 128.298,148.794 129,140.5C 130.525,137.913 132.692,137.08 135.5,138C 139.839,141.494 142.172,145.994 142.5,151.5C 141.325,151.281 140.325,151.614 139.5,152.5C 141.545,158.514 142.879,164.681 143.5,171C 142.842,181.657 137.175,186.657 126.5,186C 123.926,182.664 120.76,181.497 117,182.5C 116.81,194.505 116.81,206.505 117,218.5C 116.605,222.019 115.605,225.352 114,228.5C 112.915,229.293 111.748,229.96 110.5,230.5C 109.493,218.18 108.659,205.847 108,193.5C 105.834,191.879 103.334,191.045 100.5,191C 99,189.5 97.5,188 96,186.5C 95.6667,177.5 95.3333,168.5 95,159.5C 93.0573,159.041 91.724,160.041 91,162.5C 90.6667,168.833 90.3333,175.167 90,181.5C 88.0672,187.684 84.4005,189.018 79,185.5C 76.6597,181.479 75.3264,177.146 75,172.5C 74.182,140.906 76.5153,140.906 82,172.5C 83.7972,175.096 85.1305,174.763 86,171.5C 86.7771,163.945 88.4438,156.612 91,149.5C 92.3922,146.606 94.5589,144.606 97.5,143.5C 99.4251,143.59 100.592,144.59 101,146.5C 101.333,155.167 101.667,163.833 102,172.5C 102.953,174.592 104.286,174.925 106,173.5C 106.667,169.167 106.667,164.833 106,160.5C 104.347,152.894 103.181,145.227 102.5,137.5C 102.253,133.865 102.92,130.532 104.5,127.5 Z"/></g>
<g><path style="opacity:1" fill="#fafcfa" d="M 97.5,232.5 C 97.1984,235.059 97.5318,237.393 98.5,239.5C 98.6214,254.783 106.288,261.283 121.5,259C 136.571,254.258 145.738,244.091 149,228.5C 150.092,223.475 150.258,218.475 149.5,213.5C 149.167,213.667 148.833,213.833 148.5,214C 146.671,222.413 143.837,230.58 140,238.5C 132.305,251.508 121.472,255.341 107.5,250C 102.582,245.997 99.9154,240.831 99.5,234.5C 99.5,231.5 99.5,228.5 99.5,225.5C 99.4878,221.381 100.488,217.548 102.5,214C 103.167,213.333 103.833,213.333 104.5,214C 105.92,220.757 107.087,227.59 108,234.5C 109.878,237.23 112.378,238.897 115.5,239.5C 123.698,238.319 130.531,234.652 136,228.5C 139.343,224.655 140.509,220.322 139.5,215.5C 134.245,221.534 128.745,221.868 123,216.5C 122.139,210.415 122.473,204.415 124,198.5C 127.495,191.994 132.662,189.828 139.5,192C 147.397,202.493 150.564,200.993 149,187.5C 145.646,168.923 143.312,150.256 142,131.5C 144.128,128.542 146.794,127.876 150,129.5C 154.209,136.628 156.709,144.295 157.5,152.5C 155.833,152.5 154.167,152.5 152.5,152.5C 154.166,165.832 155.833,179.165 157.5,192.5C 163.314,190.138 165.814,192.138 165,198.5C 167.044,199.772 168.878,199.439 170.5,197.5C 171.36,194.068 173.36,191.734 176.5,190.5C 179.3,191.412 180.633,193.412 180.5,196.5C 181.5,196.5 182.5,196.5 183.5,196.5C 183.027,191.382 185.194,188.049 190,186.5C 190.464,192.529 190.131,198.529 189,204.5C 185.488,210.668 180.655,212.001 174.5,208.5C 171.236,210.964 167.57,212.63 163.5,213.5C 161.088,213.594 159.255,212.594 158,210.5C 157.667,218.167 157.333,225.833 157,233.5C 153.635,252.87 142.468,265.37 123.5,271C 107.331,275.836 96.8306,270.336 92,254.5C 91.3333,248.167 91.3333,241.833 92,235.5C 92.4497,233.481 93.283,231.648 94.5,230C 96.4894,229.481 97.4894,230.314 97.5,232.5 Z"/></g>
<g><path style="opacity:1" fill="#f3f8f2" d="M 310.5,128.5 C 315.092,127.916 317.925,129.916 319,134.5C 319.667,138.833 319.667,143.167 319,147.5C 318.252,149.332 317.252,150.999 316,152.5C 315.667,148.833 315.333,145.167 315,141.5C 312.896,138.29 311.063,134.957 309.5,131.5C 309.685,130.416 310.018,129.416 310.5,128.5 Z"/></g>
<g><path style="opacity:1" fill="#f9fbf8" d="M 329.5,127.5 C 330.496,127.414 331.329,127.748 332,128.5C 335.771,135.475 338.104,142.808 339,150.5C 337.989,151.337 336.822,151.67 335.5,151.5C 337.723,169.452 339.556,187.452 341,205.5C 341.667,216.5 341.667,227.5 341,238.5C 339.168,247.658 335.501,255.991 330,263.5C 324.929,270.621 318.096,273.787 309.5,273C 307.552,271.561 306.219,269.728 305.5,267.5C 311.091,263.357 316.757,259.19 322.5,255C 326.752,251.419 330.252,247.252 333,242.5C 333.667,234.833 333.667,227.167 333,219.5C 331.127,193.973 328.96,168.473 326.5,143C 326.121,137.531 327.121,132.364 329.5,127.5 Z"/></g>
<g><path style="opacity:1" fill="#4e9e45" d="M 183.5,133.5 C 186.47,133.746 187.803,135.412 187.5,138.5C 184.09,138.616 182.756,136.95 183.5,133.5 Z"/></g>
<g><path style="opacity:1" fill="#5fa756" d="M 288.5,143.5 C 292.143,144.382 293.31,146.716 292,150.5C 290.121,148.473 288.954,146.14 288.5,143.5 Z"/></g>
<g><path style="opacity:1" fill="#f2f8f1" d="M 321.5,160.5 C 323.95,160.874 324.95,162.374 324.5,165C 323.388,171.899 319.388,174.232 312.5,172C 309.806,169.347 308.973,166.18 310,162.5C 311.011,161.663 312.178,161.33 313.5,161.5C 314.167,165.5 314.833,165.5 315.5,161.5C 316.5,161.5 317.5,161.5 318.5,161.5C 318.281,162.675 318.614,163.675 319.5,164.5C 320.362,163.234 321.029,161.901 321.5,160.5 Z"/></g>
<g><path style="opacity:1" fill="#f2f8f2" d="M 180.5,162.5 C 181.5,162.5 182.5,162.5 183.5,162.5C 182.423,165.526 182.423,168.526 183.5,171.5C 183.833,171.833 184.167,172.167 184.5,172.5C 190.22,168.655 191.053,169.988 187,176.5C 181.106,179.099 177.606,177.265 176.5,171C 177.174,167.82 178.508,164.986 180.5,162.5 Z"/></g>
<g><path style="opacity:1" fill="#f8fbf7" d="M 376.5,163.5 C 379.044,163.104 381.211,163.771 383,165.5C 384.289,168.351 384.789,171.351 384.5,174.5C 382.549,174.227 381.049,174.893 380,176.5C 379.829,181.533 379.329,186.533 378.5,191.5C 372.809,187.976 368.309,183.309 365,177.5C 363.175,172.014 365.008,169.514 370.5,170C 371.509,172.172 373.176,173.338 375.5,173.5C 373.96,169.932 374.293,166.598 376.5,163.5 Z"/></g>
<g><path style="opacity:1" fill="#fafcfa" d="M 186.5,229.5 C 185.203,231.693 185.203,234.027 186.5,236.5C 187.107,236.376 187.44,236.043 187.5,235.5C 193.951,230.554 199.117,224.554 203,217.5C 204.189,210.404 201.856,204.737 196,200.5C 194,195.833 194,191.167 196,186.5C 200.249,183.487 203.916,184.153 207,188.5C 208.774,191.715 210.274,195.048 211.5,198.5C 210.167,199.167 208.833,199.833 207.5,200.5C 213.866,213.761 212.366,226.094 203,237.5C 198.956,243.211 193.956,247.878 188,251.5C 187.542,254.096 188.375,256.263 190.5,258C 193.928,258.701 197.262,258.368 200.5,257C 209.533,250.637 216.366,242.471 221,232.5C 221.667,227.5 221.667,222.5 221,217.5C 218.374,207.288 215.541,197.121 212.5,187C 212.547,183.406 214.047,180.573 217,178.5C 220.692,182.547 223.359,187.214 225,192.5C 227.336,201.834 229.336,211.167 231,220.5C 237.511,209.986 247.011,204.152 259.5,203C 260,202.5 260.5,202 261,201.5C 261.101,196.054 261.768,190.721 263,185.5C 271.209,177.138 278.209,178.138 284,188.5C 286.2,197.039 284.033,204.205 277.5,210C 271.295,212.797 264.961,215.13 258.5,217C 271.167,217.333 283.833,217.667 296.5,218C 296.957,218.414 297.291,218.914 297.5,219.5C 294.217,224.185 292.217,229.352 291.5,235C 280.727,238.443 269.727,240.777 258.5,242C 257,243.5 255.5,245 254,246.5C 253.365,248.635 253.699,250.635 255,252.5C 258.508,254.587 261.842,256.92 265,259.5C 266.341,264.852 264.341,267.518 259,267.5C 244.49,265.473 233.657,258.14 226.5,245.5C 221.795,252.714 216.128,259.214 209.5,265C 205.613,268.111 201.28,270.444 196.5,272C 186.791,272.483 180.458,267.983 177.5,258.5C 167.936,263.616 157.936,267.616 147.5,270.5C 146.833,270.167 146.167,269.833 145.5,269.5C 155.327,259.339 166.327,250.673 178.5,243.5C 179.875,238.337 181.708,233.337 184,228.5C 185.908,225.668 186.741,226.001 186.5,229.5 Z"/></g>
<g><path style="opacity:1" fill="#f4f9f3" d="M 240.5,184.5 C 241.85,185.483 242.85,186.816 243.5,188.5C 244.386,187.675 244.719,186.675 244.5,185.5C 245.5,185.5 246.5,185.5 247.5,185.5C 247.281,186.675 247.614,187.675 248.5,188.5C 249.262,187.372 249.929,186.205 250.5,185C 251.449,184.383 252.282,184.549 253,185.5C 255.167,194.667 251.667,198.167 242.5,196C 238.271,192.696 237.604,188.863 240.5,184.5 Z"/></g>
<g><path style="opacity:1" fill="#f6faf6" d="M 388.5,191.5 C 389.5,191.5 390.5,191.5 391.5,191.5C 391.663,193.857 391.497,196.19 391,198.5C 384.883,204.788 378.049,210.121 370.5,214.5C 369.353,212.235 369.186,209.902 370,207.5C 376.064,201.928 382.231,196.595 388.5,191.5 Z"/></g>
<g><path style="opacity:1" fill="#4e9e46" d="M 268.5,193.5 C 272.192,193.324 274.192,194.991 274.5,198.5C 270.651,198.981 268.651,197.314 268.5,193.5 Z"/></g>
<g><path style="opacity:1" fill="#f7fbf7" d="M 97.5,197.5 C 102.393,196.314 105.727,197.981 107.5,202.5C 97.414,208.293 87.2473,213.96 77,219.5C 80.1598,208.837 86.9931,201.504 97.5,197.5 Z"/></g>
<g><path style="opacity:1" fill="#53a04a" d="M 131.5,202.5 C 135.521,202.244 136.854,203.91 135.5,207.5C 129.6,209.273 128.267,207.607 131.5,202.5 Z"/></g>
<g><path style="opacity:1" fill="#afd3ac" d="M 309.5,198.5 C 308.532,200.607 308.198,202.941 308.5,205.5C 307.362,202.696 307.195,199.696 308,196.5C 308.717,197.044 309.217,197.711 309.5,198.5 Z"/></g>
<g><path style="opacity:1" fill="#edf5ec" d="M 385.5,206.5 C 387.592,206.561 389.092,207.561 390,209.5C 393.444,216.955 393.278,224.288 389.5,231.5C 388.675,232.386 387.675,232.719 386.5,232.5C 386.928,224.972 385.928,217.638 383.5,210.5C 383.752,208.927 384.418,207.594 385.5,206.5 Z"/></g>
<g><path style="opacity:1" fill="#489b40" d="M 98.5,239.5 C 98.2155,237.585 98.5489,235.919 99.5,234.5C 99.9154,240.831 102.582,245.997 107.5,250C 121.472,255.341 132.305,251.508 140,238.5C 143.837,230.58 146.671,222.413 148.5,214C 148.833,213.833 149.167,213.667 149.5,213.5C 150.258,218.475 150.092,223.475 149,228.5C 145.738,244.091 136.571,254.258 121.5,259C 106.288,261.283 98.6214,254.783 98.5,239.5 Z"/></g>
<g><path style="opacity:1" fill="#f1f7f0" d="M 170.5,217.5 C 174.043,217.872 176.21,219.872 177,223.5C 177.667,226.5 177.667,229.5 177,232.5C 176.804,234.286 175.971,235.619 174.5,236.5C 173.676,233.215 173.176,229.882 173,226.5C 169.809,224.062 168.975,221.062 170.5,217.5 Z"/></g>
<g><path style="opacity:1" fill="#419839" d="M 234.5,227.5 C 241.155,228.632 247.822,229.632 254.5,230.5C 255.833,231.833 255.833,233.167 254.5,234.5C 247.065,236.785 244.398,241.785 246.5,249.5C 238.03,246.85 233.363,241.016 232.5,232C 232.519,230.167 233.185,228.667 234.5,227.5 Z"/></g>
<g><path style="opacity:1" fill="#92c48d" d="M 99.5,225.5 C 99.5,228.5 99.5,231.5 99.5,234.5C 98.5489,235.919 98.2155,237.585 98.5,239.5C 97.5318,237.393 97.1984,235.059 97.5,232.5C 98.1667,230.167 98.8333,227.833 99.5,225.5 Z"/></g>
<g><path style="opacity:1" fill="#9cca98" d="M 186.5,229.5 C 186.205,231.735 186.539,233.735 187.5,235.5C 187.44,236.043 187.107,236.376 186.5,236.5C 185.203,234.027 185.203,231.693 186.5,229.5 Z"/></g>
<g><path style="opacity:1" fill="#87be82" d="M 349.5,242.5 C 348.833,239.833 348.167,237.167 347.5,234.5C 347.783,233.711 348.283,233.044 349,232.5C 349.498,235.817 349.665,239.15 349.5,242.5 Z"/></g>
<g><path style="opacity:1" fill="#f8fbf8" d="M 77.5,235.5 C 77.557,242.638 77.7237,249.971 78,257.5C 78.3076,258.308 78.8076,258.975 79.5,259.5C 80.5,257.833 81.8333,256.5 83.5,255.5C 84.9911,256.348 85.6578,257.681 85.5,259.5C 85.1324,262.638 84.2991,265.638 83,268.5C 79.6612,271.299 76.6612,270.966 74,267.5C 71.2122,256.359 72.3789,245.692 77.5,235.5 Z"/></g>
<g><path style="opacity:1" fill="#a6cfa2" d="M 431.5,235.5 C 430.532,237.607 430.198,239.941 430.5,242.5C 429.359,239.36 429.192,236.027 430,232.5C 430.513,233.527 431.013,234.527 431.5,235.5 Z"/></g>
<g><path style="opacity:1" fill="#f6faf6" d="M 278.5,249.5 C 279.833,249.5 281.167,249.5 282.5,249.5C 281.709,252.417 281.709,255.25 282.5,258C 286.35,256.836 290.35,256.502 294.5,257C 295.337,258.011 295.67,259.178 295.5,260.5C 289.886,262.371 284.22,264.038 278.5,265.5C 278.663,263.143 278.497,260.81 278,258.5C 276.887,257.289 275.72,257.289 274.5,258.5C 273.5,258.167 272.833,257.5 272.5,256.5C 274.281,253.909 276.281,251.575 278.5,249.5 Z"/></g>
<g><path style="opacity:1" fill="#f3f8f2" d="M 406.5,254.5 C 408.92,254.292 411.253,254.626 413.5,255.5C 413.833,256 414.167,256.5 414.5,257C 413.391,259.047 412.724,261.213 412.5,263.5C 414.167,263.5 415.833,263.5 417.5,263.5C 417.677,265.981 416.677,267.814 414.5,269C 402.853,274.858 400.853,272.692 408.5,262.5C 405.632,260.362 404.965,257.695 406.5,254.5 Z"/></g>
<g><path style="opacity:1" fill="#fdfefd" d="M 359.5,358.5 C 358.957,358.56 358.624,358.893 358.5,359.5C 360.743,360.474 363.076,360.808 365.5,360.5C 373.516,361.362 381.516,361.362 389.5,360.5C 395.83,359.582 399.664,362.248 401,368.5C 403.42,374.954 402.92,381.121 399.5,387C 397.61,388.112 395.61,388.946 393.5,389.5C 391.603,389.272 390.27,388.272 389.5,386.5C 379.517,385.334 369.517,385.168 359.5,386C 356.334,388.176 354.168,387.343 353,383.5C 352.501,379.848 352.335,376.182 352.5,372.5C 283.166,372.667 213.833,372.5 144.5,372C 136.147,369.633 129.481,364.966 124.5,358C 184.48,359.264 244.48,359.764 304.5,359.5C 320.672,360.827 337.005,360.827 353.5,359.5C 353.376,358.893 353.043,358.56 352.5,358.5C 351.445,355.927 351.278,353.261 352,350.5C 353.11,348.963 354.61,348.297 356.5,348.5C 356.5,349.5 356.5,350.5 356.5,351.5C 360.548,352.262 361.548,354.596 359.5,358.5 Z"/></g>
<g><path style="opacity:1" fill="#d8ead7" d="M 352.5,358.5 C 353.043,358.56 353.376,358.893 353.5,359.5C 337.005,360.827 320.672,360.827 304.5,359.5C 320.675,359.83 336.675,359.496 352.5,358.5 Z"/></g>
<g><path style="opacity:1" fill="#aed3ab" d="M 359.5,358.5 C 361.5,359.167 363.5,359.833 365.5,360.5C 363.076,360.808 360.743,360.474 358.5,359.5C 358.624,358.893 358.957,358.56 359.5,358.5 Z"/></g>
<g><path style="opacity:1" fill="#4f9f47" d="M 359.5,373.5 C 368.833,373.5 378.167,373.5 387.5,373.5C 387.5,375.5 387.5,377.5 387.5,379.5C 383.217,379.623 379.05,378.956 375,377.5C 369.95,379.092 364.784,379.758 359.5,379.5C 359.5,377.5 359.5,375.5 359.5,373.5 Z"/></g>
</svg>
