<?xml version="1.0" encoding="UTF-8"?>
<!DOCTYPE svg PUBLIC "-//W3C//DTD SVG 1.1//EN" "http://www.w3.org/Graphics/SVG/1.1/DTD/svg11.dtd">
<svg xmlns="http://www.w3.org/2000/svg" version="1.1" width="512px" height="512px" style="shape-rendering:geometricPrecision; text-rendering:geometricPrecision; image-rendering:optimizeQuality; fill-rule:evenodd; clip-rule:evenodd" xmlns:xlink="http://www.w3.org/1999/xlink">
<g><path style="opacity:0.997" fill="#e53030" d="M 232.5,-0.5 C 247.833,-0.5 263.167,-0.5 278.5,-0.5C 368.144,10.3879 435.644,54.7213 481,132.5C 497.695,163.971 507.861,197.304 511.5,232.5C 511.5,247.833 511.5,263.167 511.5,278.5C 500.612,368.144 456.279,435.644 378.5,481C 347.029,497.695 313.696,507.861 278.5,511.5C 263.167,511.5 247.833,511.5 232.5,511.5C 142.856,500.612 75.3562,456.279 30,378.5C 13.3053,347.029 3.1386,313.696 -0.5,278.5C -0.5,263.167 -0.5,247.833 -0.5,232.5C 10.3875,142.857 54.7208,75.3573 132.5,30C 163.971,13.3053 197.304,3.1386 232.5,-0.5 Z"/></g>
<g><path style="opacity:1" fill="#fefcfc" d="M 215.5,149.5 C 259.45,146.796 291.45,164.796 311.5,203.5C 287.639,172.922 256.639,163.755 218.5,176C 175.782,196.113 158.282,229.613 166,276.5C 176.232,314.397 200.732,336.563 239.5,343C 265.009,346.124 286.009,338.624 302.5,320.5C 281.991,351.749 252.991,365.249 215.5,361C 162.295,351.462 131.795,319.962 124,266.5C 120.563,219.531 139.063,184.365 179.5,161C 191.029,155.292 203.029,151.459 215.5,149.5 Z"/></g>
<g><path style="opacity:1" fill="#fefbfb" d="M 328.5,213.5 C 335.531,223.055 342.031,233.055 348,243.5C 348.745,244.99 349.912,245.99 351.5,246.5C 363.049,242.862 374.715,240.029 386.5,238C 378.642,247.69 370.976,257.523 363.5,267.5C 370.126,278.589 377.126,289.422 384.5,300C 372.383,296.513 360.55,292.013 349,286.5C 341,296.5 333,306.5 325,316.5C 325.537,303.497 325.37,290.497 324.5,277.5C 313.5,273 302.5,268.5 291.5,264C 303.115,260.346 314.782,256.846 326.5,253.5C 327.658,240.19 328.325,226.857 328.5,213.5 Z"/></g>
</svg>
