<?xml version="1.0" encoding="UTF-8"?>
<!DOCTYPE svg PUBLIC "-//W3C//DTD SVG 1.1//EN" "http://www.w3.org/Graphics/SVG/1.1/DTD/svg11.dtd">
<svg xmlns="http://www.w3.org/2000/svg" version="1.1" width="512px" height="512px" style="shape-rendering:geometricPrecision; text-rendering:geometricPrecision; image-rendering:optimizeQuality; fill-rule:evenodd; clip-rule:evenodd" xmlns:xlink="http://www.w3.org/1999/xlink">
<g><path style="opacity:1" fill="#49a948" d="M 233.5,-0.5 C 248.167,-0.5 262.833,-0.5 277.5,-0.5C 277.5,0.166667 277.833,0.5 278.5,0.5C 299.339,14.7757 314.505,33.7757 324,57.5C 338.258,93.6215 347.758,130.955 352.5,169.5C 287.5,169.5 222.5,169.5 157.5,169.5C 157.5,119.167 157.5,68.8333 157.5,18.5C 176.372,10.322 196.038,4.98862 216.5,2.5C 221.731,2.55565 226.731,1.88899 231.5,0.5C 232.492,0.67158 233.158,0.338246 233.5,-0.5 Z"/></g>
<g><path style="opacity:0.996" fill="#87c685" d="M 231.5,0.5 C 226.731,1.88899 221.731,2.55565 216.5,2.5C 221.269,1.11101 226.269,0.444348 231.5,0.5 Z"/></g>
<g><path style="opacity:1" fill="#439946" d="M 278.5,0.5 C 279.5,0.5 280.5,0.5 281.5,0.5C 285.567,2.05378 289.9,2.72045 294.5,2.5C 354.248,11.3677 404.248,38.0343 444.5,82.5C 445.08,84.7488 446.413,86.4154 448.5,87.5C 469.231,110.269 484.898,136.269 495.5,165.5C 495.5,166.833 495.5,168.167 495.5,169.5C 447.833,169.5 400.167,169.5 352.5,169.5C 347.758,130.955 338.258,93.6215 324,57.5C 314.505,33.7757 299.339,14.7757 278.5,0.5 Z"/></g>
<g><path style="opacity:0.796" fill="#9bc99c" d="M 281.5,0.5 C 286.049,0.624456 290.382,1.29112 294.5,2.5C 289.9,2.72045 285.567,2.05378 281.5,0.5 Z"/></g>
<g><path style="opacity:1" fill="#ce5d49" d="M 157.5,18.5 C 157.5,68.8333 157.5,119.167 157.5,169.5C 157.5,169.833 157.5,170.167 157.5,170.5C 157.5,226.833 157.5,283.167 157.5,339.5C 157.167,339.5 156.833,339.5 156.5,339.5C 156.5,233.167 156.5,126.833 156.5,20.5C 155.5,20.5 154.5,20.5 153.5,20.5C 154.514,19.3263 155.847,18.6596 157.5,18.5 Z"/></g>
<g><path style="opacity:1" fill="#e63b36" d="M 153.5,20.5 C 154.5,20.5 155.5,20.5 156.5,20.5C 156.5,126.833 156.5,233.167 156.5,339.5C 156.5,389.833 156.5,440.167 156.5,490.5C 155.5,490.5 154.5,490.5 153.5,490.5C 146.734,488.282 140.401,485.282 134.5,481.5C 134.027,480.094 133.027,479.427 131.5,479.5C 128.008,478.59 125.008,476.924 122.5,474.5C 122.027,473.094 121.027,472.427 119.5,472.5C 112.125,468.815 105.459,464.149 99.5,458.5C 98.4154,456.413 96.7488,455.08 94.5,454.5C 91.5726,453.243 89.2393,451.243 87.5,448.5C 86.7377,446.738 85.4044,445.738 83.5,445.5C 34.5231,400.547 6.52311,344.88 -0.5,278.5C -0.5,263.167 -0.5,247.833 -0.5,232.5C 0.659892,224.594 1.99323,216.594 3.5,208.5C 5.03954,206.162 5.70621,203.495 5.5,200.5C 5.74025,195.88 6.74025,191.547 8.5,187.5C 10.1628,185.562 10.8294,183.228 10.5,180.5C 14.897,164.294 21.2303,148.961 29.5,134.5C 30.9063,134.027 31.573,133.027 31.5,131.5C 32.4097,128.008 34.0764,125.008 36.5,122.5C 37.9063,122.027 38.573,121.027 38.5,119.5C 39.9063,119.027 40.573,118.027 40.5,116.5C 41.7589,112.975 43.7589,109.975 46.5,107.5C 48.2624,106.738 49.2624,105.404 49.5,103.5C 51.2624,102.738 52.2624,101.404 52.5,99.5C 53.0798,97.2512 54.4131,95.5846 56.5,94.5C 58.2624,93.7377 59.2624,92.4044 59.5,90.5C 60.1667,89.1667 61.1667,88.1667 62.5,87.5C 64.2624,86.7377 65.2624,85.4044 65.5,83.5C 70.1667,78.1667 75.1667,73.1667 80.5,68.5C 83.4274,67.2427 85.7607,65.2427 87.5,62.5C 89.2393,59.7573 91.5726,57.7573 94.5,56.5C 96.7488,55.9202 98.4154,54.5869 99.5,52.5C 101.404,52.2624 102.738,51.2624 103.5,49.5C 105.404,49.2624 106.738,48.2624 107.5,46.5C 111.148,43.3401 115.148,40.6735 119.5,38.5C 121.027,38.573 122.027,37.9063 122.5,36.5C 125.24,34.4405 128.24,32.7738 131.5,31.5C 133.027,31.573 134.027,30.9063 134.5,29.5C 140.401,25.7176 146.734,22.7176 153.5,20.5 Z"/></g>
<g><path style="opacity:0.973" fill="#ce9a81" d="M 134.5,29.5 C 134.027,30.9063 133.027,31.573 131.5,31.5C 131.973,30.0937 132.973,29.427 134.5,29.5 Z"/></g>
<g><path style="opacity:0.984" fill="#ba825d" d="M 122.5,36.5 C 122.027,37.9063 121.027,38.573 119.5,38.5C 119.973,37.0937 120.973,36.427 122.5,36.5 Z"/></g>
<g><path style="opacity:0.98" fill="#bc7d58" d="M 107.5,46.5 C 106.738,48.2624 105.404,49.2624 103.5,49.5C 104.262,47.7376 105.596,46.7376 107.5,46.5 Z"/></g>
<g><path style="opacity:0.98" fill="#cf8a70" d="M 103.5,49.5 C 102.738,51.2624 101.404,52.2624 99.5,52.5C 100.262,50.7376 101.596,49.7376 103.5,49.5 Z"/></g>
<g><path style="opacity:1" fill="#d6745d" d="M 99.5,52.5 C 98.4154,54.5869 96.7488,55.9202 94.5,56.5C 95.5846,54.4131 97.2512,53.0798 99.5,52.5 Z"/></g>
<g><path style="opacity:0.996" fill="#d67c66" d="M 87.5,62.5 C 85.7607,65.2427 83.4274,67.2427 80.5,68.5C 82.2393,65.7573 84.5726,63.7573 87.5,62.5 Z"/></g>
<g><path style="opacity:0.976" fill="#acd2ac" d="M 444.5,82.5 C 446.587,83.5846 447.92,85.2512 448.5,87.5C 446.413,86.4154 445.08,84.7488 444.5,82.5 Z"/></g>
<g><path style="opacity:0.992" fill="#c28160" d="M 65.5,83.5 C 65.2624,85.4044 64.2624,86.7377 62.5,87.5C 62.7376,85.5956 63.7376,84.2623 65.5,83.5 Z"/></g>
<g><path style="opacity:0.992" fill="#d8907b" d="M 59.5,90.5 C 59.2624,92.4044 58.2624,93.7377 56.5,94.5C 56.7376,92.5956 57.7376,91.2623 59.5,90.5 Z"/></g>
<g><path style="opacity:0.988" fill="#c2815f" d="M 52.5,99.5 C 52.2624,101.404 51.2624,102.738 49.5,103.5C 49.7376,101.596 50.7376,100.262 52.5,99.5 Z"/></g>
<g><path style="opacity:0.957" fill="#ce8a6f" d="M 49.5,103.5 C 49.2624,105.404 48.2624,106.738 46.5,107.5C 46.7376,105.596 47.7376,104.262 49.5,103.5 Z"/></g>
<g><path style="opacity:0.843" fill="#b38b62" d="M 40.5,116.5 C 40.573,118.027 39.9063,119.027 38.5,119.5C 38.427,117.973 39.0937,116.973 40.5,116.5 Z"/></g>
<g><path style="opacity:0.682" fill="#d2a58d" d="M 38.5,119.5 C 38.573,121.027 37.9063,122.027 36.5,122.5C 36.427,120.973 37.0937,119.973 38.5,119.5 Z"/></g>
<g><path style="opacity:0.635" fill="#c9a98c" d="M 31.5,131.5 C 31.573,133.027 30.9063,134.027 29.5,134.5C 29.427,132.973 30.0937,131.973 31.5,131.5 Z"/></g>
<g><path style="opacity:1" fill="#81bc82" d="M 495.5,165.5 C 496.404,166.209 496.737,167.209 496.5,168.5C 448.845,170.495 400.845,171.162 352.5,170.5C 287.5,170.5 222.5,170.5 157.5,170.5C 157.5,170.167 157.5,169.833 157.5,169.5C 222.5,169.5 287.5,169.5 352.5,169.5C 400.167,169.5 447.833,169.5 495.5,169.5C 495.5,168.167 495.5,166.833 495.5,165.5 Z"/></g>
<g><path style="opacity:1" fill="#eeeeee" d="M 157.5,170.5 C 222.5,170.5 287.5,170.5 352.5,170.5C 359.167,226.836 359.167,283.169 352.5,339.5C 287.5,339.5 222.5,339.5 157.5,339.5C 157.5,283.167 157.5,226.833 157.5,170.5 Z"/></g>
<g><path style="opacity:1" fill="#efecec" d="M 496.5,168.5 C 504.05,189.255 509.05,210.588 511.5,232.5C 511.5,247.833 511.5,263.167 511.5,278.5C 509.202,299.359 504.536,319.693 497.5,339.5C 449.167,339.5 400.833,339.5 352.5,339.5C 359.167,283.169 359.167,226.836 352.5,170.5C 400.845,171.162 448.845,170.495 496.5,168.5 Z"/></g>
<g><path style="opacity:1" fill="#f07f77" d="M 10.5,180.5 C 10.8294,183.228 10.1628,185.562 8.5,187.5C 8.72148,184.933 9.38815,182.599 10.5,180.5 Z"/></g>
<g><path style="opacity:0.839" fill="#f3a19d" d="M 5.5,200.5 C 5.70621,203.495 5.03954,206.162 3.5,208.5C 3.56513,205.572 4.2318,202.905 5.5,200.5 Z"/></g>
<g><path style="opacity:1" fill="#5d5d5d" d="M 157.5,340.5 C 157.5,340.167 157.5,339.833 157.5,339.5C 222.5,339.5 287.5,339.5 352.5,339.5C 400.833,339.5 449.167,339.5 497.5,339.5C 497.737,340.791 497.404,341.791 496.5,342.5C 448.845,340.505 400.845,339.838 352.5,340.5C 287.5,340.5 222.5,340.5 157.5,340.5 Z"/></g>
<g><path style="opacity:1" fill="#b3342f" d="M 156.5,339.5 C 156.833,339.5 157.167,339.5 157.5,339.5C 157.5,339.833 157.5,340.167 157.5,340.5C 157.5,391.167 157.5,441.833 157.5,492.5C 155.847,492.34 154.514,491.674 153.5,490.5C 154.5,490.5 155.5,490.5 156.5,490.5C 156.5,440.167 156.5,389.833 156.5,339.5 Z"/></g>
<g><path style="opacity:1" fill="#151515" d="M 157.5,340.5 C 222.5,340.5 287.5,340.5 352.5,340.5C 347.69,380.102 337.856,418.435 323,455.5C 313.724,477.076 299.891,495.076 281.5,509.5C 281.5,509.833 281.5,510.167 281.5,510.5C 279.901,510.232 278.568,510.566 277.5,511.5C 262.833,511.5 248.167,511.5 233.5,511.5C 233.158,510.662 232.492,510.328 231.5,510.5C 226.402,509.043 221.069,508.376 215.5,508.5C 207.191,507.751 199.191,506.085 191.5,503.5C 189.485,502.076 187.152,501.41 184.5,501.5C 182.485,500.076 180.152,499.41 177.5,499.5C 175.035,499.233 172.701,498.566 170.5,497.5C 169.365,495.787 167.698,495.12 165.5,495.5C 162.673,494.892 160.007,493.892 157.5,492.5C 157.5,441.833 157.5,391.167 157.5,340.5 Z"/></g>
<g><path style="opacity:1" fill="#0d0d0d" d="M 352.5,340.5 C 400.845,339.838 448.845,340.505 496.5,342.5C 495.069,343.78 494.402,345.447 494.5,347.5C 486.09,371.001 474.09,392.335 458.5,411.5C 457.094,411.973 456.427,412.973 456.5,414.5C 435.336,441.678 409.669,463.344 379.5,479.5C 377.973,479.427 376.973,480.094 376.5,481.5C 367.317,486.789 357.65,491.122 347.5,494.5C 345.447,494.402 343.78,495.069 342.5,496.5C 337.5,498.943 332.166,500.61 326.5,501.5C 323.848,501.41 321.515,502.076 319.5,503.5C 311.809,506.085 303.809,507.751 295.5,508.5C 290.807,508.54 286.141,508.873 281.5,509.5C 299.891,495.076 313.724,477.076 323,455.5C 337.856,418.435 347.69,380.102 352.5,340.5 Z"/></g>
<g><path style="opacity:0.659" fill="#959595" d="M 496.5,342.5 C 496.598,344.553 495.931,346.22 494.5,347.5C 494.402,345.447 495.069,343.78 496.5,342.5 Z"/></g>
<g><path style="opacity:0.094" fill="#bdbdbd" d="M 458.5,411.5 C 458.573,413.027 457.906,414.027 456.5,414.5C 456.427,412.973 457.094,411.973 458.5,411.5 Z"/></g>
<g><path style="opacity:0.984" fill="#d1867f" d="M 83.5,445.5 C 85.4044,445.738 86.7377,446.738 87.5,448.5C 85.5956,448.262 84.2623,447.262 83.5,445.5 Z"/></g>
<g><path style="opacity:1" fill="#ce675f" d="M 94.5,454.5 C 96.7488,455.08 98.4154,456.413 99.5,458.5C 97.2512,457.92 95.5846,456.587 94.5,454.5 Z"/></g>
<g><path style="opacity:0.8" fill="#a6605b" d="M 119.5,472.5 C 121.027,472.427 122.027,473.094 122.5,474.5C 120.973,474.573 119.973,473.906 119.5,472.5 Z"/></g>
<g><path style="opacity:0.569" fill="#ca928e" d="M 131.5,479.5 C 133.027,479.427 134.027,480.094 134.5,481.5C 132.973,481.573 131.973,480.906 131.5,479.5 Z"/></g>
<g><path style="opacity:0.008" fill="#c4c4c4" d="M 379.5,479.5 C 379.027,480.906 378.027,481.573 376.5,481.5C 376.973,480.094 377.973,479.427 379.5,479.5 Z"/></g>
<g><path style="opacity:0.992" fill="#8c8c8c" d="M 165.5,495.5 C 167.698,495.12 169.365,495.787 170.5,497.5C 168.597,497.204 166.93,496.537 165.5,495.5 Z"/></g>
<g><path style="opacity:0.341" fill="#ababab" d="M 347.5,494.5 C 346.22,495.931 344.553,496.598 342.5,496.5C 343.78,495.069 345.447,494.402 347.5,494.5 Z"/></g>
<g><path style="opacity:0.988" fill="#7e7e7e" d="M 177.5,499.5 C 180.152,499.41 182.485,500.076 184.5,501.5C 181.848,501.59 179.515,500.924 177.5,499.5 Z"/></g>
<g><path style="opacity:0.988" fill="#7d7d7d" d="M 184.5,501.5 C 187.152,501.41 189.485,502.076 191.5,503.5C 188.848,503.59 186.515,502.924 184.5,501.5 Z"/></g>
<g><path style="opacity:0.012" fill="#aaaaaa" d="M 326.5,501.5 C 324.485,502.924 322.152,503.59 319.5,503.5C 321.515,502.076 323.848,501.41 326.5,501.5 Z"/></g>
<g><path style="opacity:0.969" fill="#7d7d7d" d="M 215.5,508.5 C 221.069,508.376 226.402,509.043 231.5,510.5C 225.949,510.473 220.616,509.806 215.5,508.5 Z"/></g>
<g><path style="opacity:0.812" fill="#8b8b8b" d="M 295.5,508.5 C 291.036,509.644 286.37,510.31 281.5,510.5C 281.5,510.167 281.5,509.833 281.5,509.5C 286.141,508.873 290.807,508.54 295.5,508.5 Z"/></g>
</svg>
