<?xml version="1.0" encoding="UTF-8"?>
<!DOCTYPE svg PUBLIC "-//W3C//DTD SVG 1.1//EN" "http://www.w3.org/Graphics/SVG/1.1/DTD/svg11.dtd">

<svg xmlns="http://www.w3.org/2000/svg" version="1.1" width="512px" height="512px" style="shape-rendering:geometricPrecision; text-rendering:geometricPrecision; image-rendering:optimizeQuality; fill-rule:evenodd; clip-rule:evenodd" xmlns:xlink="http://www.w3.org/1999/xlink">
<g><path style="opacity:0.992" fill="white" d="M 435.5,-0.5 C 437.833,-0.5 440.167,-0.5 442.5,-0.5C 443.607,4.08148 443.773,8.74815 443,13.5C 436.336,65.488 426.336,116.821 413,167.5C 412.333,169.5 412.333,171.5 413,173.5C 426.572,186.736 441.072,198.903 456.5,210C 474.478,221.824 492.811,232.991 511.5,243.5C 511.5,246.5 511.5,249.5 511.5,252.5C 510.678,254.389 509.845,256.389 509,258.5C 484.754,288.681 453.254,306.181 414.5,311C 403.671,311.96 392.838,312.793 382,313.5C 345.774,311.561 309.607,308.728 273.5,305C 254.138,304.123 234.805,304.456 215.5,306C 181.92,309.959 153.253,323.792 129.5,347.5C 104.802,261.25 80.6355,174.916 57,88.5C 85.7784,60.0033 120.612,45.5033 161.5,45C 170.5,44.3333 179.5,44.3333 188.5,45C 221.197,47.2697 253.864,49.9363 286.5,53C 319.455,56.239 351.455,52.239 382.5,41C 403.842,31.8202 421.509,17.9868 435.5,-0.5 Z"/></g>
<g><path style="opacity:0.972" fill="white" d="M 131.5,511.5 C 126.833,511.5 122.167,511.5 117.5,511.5C 111.193,507.662 107.36,501.996 106,494.5C 70.7853,367.627 35.2853,240.96 -0.5,114.5C -0.5,110.167 -0.5,105.833 -0.5,101.5C 3.60523,91.6735 11.1052,86.3401 22,85.5C 33.95,86.4479 41.2834,92.7812 44,104.5C 79.6667,232.167 115.333,359.833 151,487.5C 152.634,495.6 150.134,502.1 143.5,507C 139.429,508.63 135.429,510.13 131.5,511.5 Z"/></g>
</svg>
