<?xml version="1.0" encoding="UTF-8"?>
<!DOCTYPE svg PUBLIC "-//W3C//DTD SVG 1.1//EN" "http://www.w3.org/Graphics/SVG/1.1/DTD/svg11.dtd">
<svg xmlns="http://www.w3.org/2000/svg" version="1.1" width="192px" height="117px" style="shape-rendering:geometricPrecision; text-rendering:geometricPrecision; image-rendering:optimizeQuality; fill-rule:evenodd; clip-rule:evenodd" xmlns:xlink="http://www.w3.org/1999/xlink">
<g><path style="opacity:0.999" fill="#faa318" d="M 152.5,67.5 C 152.167,67.5 151.833,67.5 151.5,67.5C 147.194,65.0117 142.861,62.5117 138.5,60C 135.854,59.5026 133.187,59.3359 130.5,59.5C 130.848,45.7234 125.848,34.2234 115.5,25C 110.026,21.3974 104.026,19.3974 97.5,19C 96.8599,14.7321 96.1933,10.5655 95.5,6.5C 94.5166,10.2984 94.1832,14.2984 94.5,18.5C 92.901,18.2322 91.5676,18.5655 90.5,19.5C 77.52,22.3087 68.6867,29.9753 64,42.5C 63.9518,48.3867 63.1185,54.0534 61.5,59.5C 58.8127,59.3359 56.146,59.5026 53.5,60C 48.9654,62.767 44.2987,65.267 39.5,67.5C 36.1712,38.3286 47.8378,17.4953 74.5,5C 104.871,-4.38192 128.705,4.11808 146,30.5C 152.026,42.189 154.193,54.5224 152.5,67.5 Z"/></g>
<g><path style="opacity:1" fill="#82603e" d="M 95.5,6.5 C 95.5,10.8333 95.5,15.1667 95.5,19.5C 93.8333,19.5 92.1667,19.5 90.5,19.5C 91.5676,18.5655 92.901,18.2322 94.5,18.5C 94.1832,14.2984 94.5166,10.2984 95.5,6.5 Z"/></g>
<g><path style="opacity:1" fill="#dedee3" d="M 151.5,69.5 C 154.77,71.4741 158.103,73.4741 161.5,75.5C 162.298,75.9569 162.631,76.6236 162.5,77.5C 154.5,73.5 146.5,69.5 138.5,65.5C 138.351,64.448 138.517,63.448 139,62.5C 142.979,65.2376 147.145,67.571 151.5,69.5 Z"/></g>
<g><path style="opacity:1" fill="#111532" d="M 136.5,62.5 C 137.167,63.5 137.833,64.5 138.5,65.5C 146.5,69.5 154.5,73.5 162.5,77.5C 162.5,78.1667 162.167,78.5 161.5,78.5C 154.136,75.1499 146.803,71.8166 139.5,68.5C 139.44,67.9569 139.107,67.6236 138.5,67.5C 137.818,68.2427 137.151,68.9094 136.5,69.5C 136.5,68.5 136.5,67.5 136.5,66.5C 116.833,66.5 97.1667,66.5 77.5,66.5C 76.8333,66.5 76.1667,66.5 75.5,66.5C 70.1667,66.1667 70.1667,65.8333 75.5,65.5C 95.8333,65.5 116.167,65.5 136.5,65.5C 136.5,64.5 136.5,63.5 136.5,62.5 Z"/></g>
<g><path style="opacity:1" fill="#5c5d7f" d="M 139.5,68.5 C 138.662,68.8417 138.328,69.5084 138.5,70.5C 137.494,70.9377 137.494,71.6043 138.5,72.5C 138.5,77.5 138.5,82.5 138.5,87.5C 137.833,82.5 137.167,77.5 136.5,72.5C 136.5,72.1667 136.5,71.8333 136.5,71.5C 109.5,70.8333 82.5,70.1667 55.5,69.5C 82.1667,69.5 108.833,69.5 135.5,69.5C 135.833,69.5 136.167,69.5 136.5,69.5C 137.151,68.9094 137.818,68.2427 138.5,67.5C 139.107,67.6236 139.44,67.9569 139.5,68.5 Z"/></g>
<g><path style="opacity:1" fill="#d4d4db" d="M 139.5,68.5 C 146.803,71.8166 154.136,75.1499 161.5,78.5C 162.463,79.3635 162.463,80.0302 161.5,80.5C 153.929,76.8794 146.262,73.546 138.5,70.5C 138.328,69.5084 138.662,68.8417 139.5,68.5 Z"/></g>
<g><path style="opacity:1" fill="#21214a" d="M 95.5,6.5 C 96.1933,10.5655 96.8599,14.7321 97.5,19C 104.026,19.3974 110.026,21.3974 115.5,25C 125.848,34.2234 130.848,45.7234 130.5,59.5C 133.187,59.3359 135.854,59.5026 138.5,60C 142.861,62.5117 147.194,65.0117 151.5,67.5C 151.5,68.1667 151.5,68.8333 151.5,69.5C 147.145,67.571 142.979,65.2376 139,62.5C 138.517,63.448 138.351,64.448 138.5,65.5C 137.833,64.5 137.167,63.5 136.5,62.5C 109.672,61.5021 82.6718,61.1688 55.5,61.5C 55.5,62.5 55.5,63.5 55.5,64.5C 60.3165,65.3261 65.3165,65.8261 70.5,66C 65.3165,66.1739 60.3165,66.6739 55.5,67.5C 55.5,68.1667 55.5,68.8333 55.5,69.5C 82.5,70.1667 109.5,70.8333 136.5,71.5C 109.328,71.1688 82.3282,71.5021 55.5,72.5C 55.5,77.5 55.5,82.5 55.5,87.5C 66.8333,87.5 78.1667,87.5 89.5,87.5C 78.1667,88.1667 66.8333,88.8333 55.5,89.5C 55.5,95.8333 55.5,102.167 55.5,108.5C 54.8333,102.167 54.1667,95.8333 53.5,89.5C 52.5084,89.3284 51.8417,89.6618 51.5,90.5C 49.55,95.7351 48.8833,101.402 49.5,107.5C 48.5,107.5 47.5,107.5 46.5,107.5C 46.8282,102.125 46.4948,96.7921 45.5,91.5C 44.8933,91.6236 44.56,91.9569 44.5,92.5C 43.8333,92.5 43.1667,92.5 42.5,92.5C 41.5128,97.3054 41.1795,102.305 41.5,107.5C 40.5,107.5 39.5,107.5 38.5,107.5C 38.5,103.167 38.5,98.8333 38.5,94.5C 37.1779,94.33 36.0113,94.6634 35,95.5C 34.5012,99.4862 34.3345,103.486 34.5,107.5C 33.5,107.5 32.5,107.5 31.5,107.5C 31.8226,103.774 31.4892,100.107 30.5,96.5C 29.8165,96.8627 29.1499,97.1961 28.5,97.5C 28.1667,97.5 27.8333,97.5 27.5,97.5C 27.5,89.8333 27.5,82.1667 27.5,74.5C 31.1638,71.6654 35.1638,69.332 39.5,67.5C 44.2987,65.267 48.9654,62.767 53.5,60C 56.146,59.5026 58.8127,59.3359 61.5,59.5C 63.1185,54.0534 63.9518,48.3867 64,42.5C 68.6867,29.9753 77.52,22.3087 90.5,19.5C 92.1667,19.5 93.8333,19.5 95.5,19.5C 95.5,15.1667 95.5,10.8333 95.5,6.5 Z"/></g>
<g><path style="opacity:1" fill="#dbdbe0" d="M 51.5,62.5 C 53.4646,62.9483 53.7979,63.9483 52.5,65.5C 44.6759,69.245 37.0092,73.245 29.5,77.5C 29.1667,77.1667 28.8333,76.8333 28.5,76.5C 36.397,72.0589 44.0636,67.3922 51.5,62.5 Z"/></g>
<g><path style="opacity:1" fill="#fefefe" d="M 75.5,66.5 C 76.1667,66.5 76.8333,66.5 77.5,66.5C 97.0216,66.8372 116.355,67.8372 135.5,69.5C 108.833,69.5 82.1667,69.5 55.5,69.5C 55.5,68.8333 55.5,68.1667 55.5,67.5C 62.3543,67.824 69.021,67.4907 75.5,66.5 Z"/></g>
<g><path style="opacity:1" fill="#a7a7b7" d="M 77.5,66.5 C 97.1667,66.5 116.833,66.5 136.5,66.5C 136.5,67.5 136.5,68.5 136.5,69.5C 136.167,69.5 135.833,69.5 135.5,69.5C 116.355,67.8372 97.0216,66.8372 77.5,66.5 Z"/></g>
<g><path style="opacity:1" fill="#a3a3b3" d="M 55.5,64.5 C 62.3543,64.176 69.021,64.5093 75.5,65.5C 70.1667,65.8333 70.1667,66.1667 75.5,66.5C 69.021,67.4907 62.3543,67.824 55.5,67.5C 60.3165,66.6739 65.3165,66.1739 70.5,66C 65.3165,65.8261 60.3165,65.3261 55.5,64.5 Z"/></g>
<g><path style="opacity:1" fill="#e7e7eb" d="M 136.5,62.5 C 136.5,63.5 136.5,64.5 136.5,65.5C 116.167,65.5 95.8333,65.5 75.5,65.5C 69.021,64.5093 62.3543,64.176 55.5,64.5C 55.5,63.5 55.5,62.5 55.5,61.5C 82.6718,61.1688 109.672,61.5021 136.5,62.5 Z"/></g>
<g><path style="opacity:1" fill="#ebebef" d="M 85.5,51.5 C 96.2634,51.1278 106.93,51.9612 117.5,54C 121.402,55.0203 125.068,56.5203 128.5,58.5C 127.667,58.8333 126.833,59.1667 126,59.5C 124,58.8333 122,58.1667 120,57.5C 117.321,58.8945 114.488,59.5612 111.5,59.5C 111.003,54.5072 108.836,53.5072 105,56.5C 104.517,57.448 104.351,58.448 104.5,59.5C 102.5,59.5 100.5,59.5 98.5,59.5C 99.5,54.5 97.5,52.5 92.5,53.5C 92.5,55.5 92.5,57.5 92.5,59.5C 90.5,59.5 88.5,59.5 86.5,59.5C 86.003,54.5072 83.8363,53.5072 80,56.5C 79.5172,57.448 79.3505,58.448 79.5,59.5C 76.5123,59.5612 73.6789,58.8945 71,57.5C 69.072,57.9335 67.2387,58.6002 65.5,59.5C 64.0683,59.2668 63.5683,58.6001 64,57.5C 71.0132,54.539 78.1798,52.539 85.5,51.5 Z"/></g>
<g><path style="opacity:1" fill="#fafafb" d="M 87.5,21.5 C 104.735,18.7005 117.235,25.0339 125,40.5C 126.499,44.473 126.666,48.473 125.5,52.5C 121.76,50.3089 117.76,48.8089 113.5,48C 101.829,46.1018 90.1619,46.1018 78.5,48C 73.9903,49.0032 69.6569,50.5032 65.5,52.5C 64.5933,41.2026 68.9266,32.3693 78.5,26C 81.5919,24.4541 84.5919,22.9541 87.5,21.5 Z"/></g>
<g><path style="opacity:1" fill="#9d9dae" d="M 83.5,48.5 C 91.1739,48.3336 98.8406,48.5003 106.5,49C 111.017,49.2632 115.351,50.2632 119.5,52C 105.891,50.3673 92.2248,50.2007 78.5,51.5C 77.5,51.3333 76.5,51.1667 75.5,51C 78.3102,50.2177 80.9768,49.3844 83.5,48.5 Z"/></g>
<g><path style="opacity:1" fill="#f3f3f5" d="M 55.5,72.5 C 82.1667,72.5 108.833,72.5 135.5,72.5C 135.5,77.1667 135.5,81.8333 135.5,86.5C 124.167,86.5 112.833,86.5 101.5,86.5C 101.737,85.209 101.404,84.209 100.5,83.5C 99.0433,79.9509 96.3766,78.7842 92.5,80C 91.1772,80.8159 90.5106,81.9826 90.5,83.5C 89.5655,84.5676 89.2322,85.901 89.5,87.5C 78.1667,87.5 66.8333,87.5 55.5,87.5C 55.5,82.5 55.5,77.5 55.5,72.5 Z"/></g>
<g><path style="opacity:1" fill="#e6e6ea" d="M 51.5,72.5 C 52.8086,74.5706 53.4752,77.0706 53.5,80C 53.1667,82.5 52.8333,85 52.5,87.5C 51.8333,87.8333 51.1667,88.1667 50.5,88.5C 49.8333,84.8333 49.1667,81.1667 48.5,77.5C 47.914,77.7093 47.414,78.0426 47,78.5C 46.8253,82.211 46.3253,85.8776 45.5,89.5C 44.8333,89.8333 44.1667,90.1667 43.5,90.5C 42.5159,87.5719 42.1826,84.5719 42.5,81.5C 41.1779,81.33 40.0113,81.6634 39,82.5C 38.5017,85.8168 38.335,89.1501 38.5,92.5C 37.1667,92.5 35.8333,92.5 34.5,92.5C 34.8076,90.076 34.4742,87.7427 33.5,85.5C 33.1667,85.6667 32.8333,85.8333 32.5,86C 31.5562,88.7191 31.2229,91.5525 31.5,94.5C 30.5,94.5 29.5,94.5 28.5,94.5C 28.1758,90.4454 28.5091,86.4454 29.5,82.5C 37.1618,79.6653 44.4951,76.332 51.5,72.5 Z"/></g>
<g><path style="opacity:1" fill="#f3f2f4" d="M 138.5,72.5 C 146.137,75.8263 153.804,79.1597 161.5,82.5C 162.833,86.5 162.833,90.5 161.5,94.5C 160.832,92.0312 160.165,89.6979 159.5,87.5C 158.994,85.8946 158.327,85.5613 157.5,86.5C 156.539,88.2646 156.205,90.2646 156.5,92.5C 155.178,92.67 154.011,92.3366 153,91.5C 152.502,88.1832 152.335,84.8499 152.5,81.5C 151.5,81.5 150.5,81.5 149.5,81.5C 149.5,84.5 149.5,87.5 149.5,90.5C 148.178,90.67 147.011,90.3366 146,89.5C 145.667,85.8333 145.333,82.1667 145,78.5C 144,77.1667 143,77.1667 142,78.5C 142.07,81.992 141.237,84.992 139.5,87.5C 139.167,87.5 138.833,87.5 138.5,87.5C 138.5,82.5 138.5,77.5 138.5,72.5 Z"/></g>
<g><path style="opacity:1" fill="#d2d3da" d="M 51.5,67.5 C 53.0481,67.8212 53.7148,68.8212 53.5,70.5C 45.8497,72.8224 38.5163,75.9891 31.5,80C 30.5,80.6667 29.5,80.6667 28.5,80C 36.4849,76.3423 44.1516,72.1756 51.5,67.5 Z"/></g>
<g><path style="opacity:1" fill="#b2b2be" d="M 55.5,72.5 C 82.3282,71.5021 109.328,71.1688 136.5,71.5C 136.5,71.8333 136.5,72.1667 136.5,72.5C 136.5,77.5 136.5,82.5 136.5,87.5C 124.833,87.5 113.167,87.5 101.5,87.5C 100.566,86.4324 100.232,85.099 100.5,83.5C 101.404,84.209 101.737,85.209 101.5,86.5C 112.833,86.5 124.167,86.5 135.5,86.5C 135.5,81.8333 135.5,77.1667 135.5,72.5C 108.833,72.5 82.1667,72.5 55.5,72.5 Z"/></g>
<g><path style="opacity:1" fill="#141741" d="M 136.5,72.5 C 137.167,77.5 137.833,82.5 138.5,87.5C 138.833,87.5 139.167,87.5 139.5,87.5C 139.918,88.2216 140.584,88.7216 141.5,89C 140.906,89.4643 140.239,89.631 139.5,89.5C 138.51,95.31 138.177,101.31 138.5,107.5C 146.316,108.492 154.316,108.826 162.5,108.5C 148.833,109.833 135.167,109.833 121.5,108.5C 123.5,108.5 125.5,108.5 127.5,108.5C 127.5,102.833 127.5,97.1667 127.5,91.5C 128.166,96.3489 128.833,101.349 129.5,106.5C 130.167,100.681 130.833,95.0139 131.5,89.5C 131.5,95.8333 131.5,102.167 131.5,108.5C 133.167,108.5 134.833,108.5 136.5,108.5C 136.5,102.167 136.5,95.8333 136.5,89.5C 124.833,88.8333 113.167,88.1667 101.5,87.5C 113.167,87.5 124.833,87.5 136.5,87.5C 136.5,82.5 136.5,77.5 136.5,72.5 Z"/></g>
<g><path style="opacity:0.953" fill="#413c64" d="M 151.5,67.5 C 151.833,67.5 152.167,67.5 152.5,67.5C 156.15,69.4717 159.816,71.4717 163.5,73.5C 164.821,86.0624 164.821,98.5624 163.5,111C 118.167,111.667 72.8333,111.667 27.5,111C 26.1705,98.7354 26.1705,86.5687 27.5,74.5C 27.5,82.1667 27.5,89.8333 27.5,97.5C 27.5,101.5 27.5,105.5 27.5,109.5C 57.6713,109.831 87.6713,109.498 117.5,108.5C 117.823,101.978 117.49,95.6446 116.5,89.5C 114.833,89.5 113.167,89.5 111.5,89.5C 111.167,89.5 110.833,89.5 110.5,89.5C 109.833,95.0139 109.167,100.681 108.5,106.5C 107.818,107.243 107.151,107.909 106.5,108.5C 106.5,102.167 106.5,95.8333 106.5,89.5C 104.833,89.5 103.167,89.5 101.5,89.5C 101.5,95.8333 101.5,102.167 101.5,108.5C 100.672,102.347 100.172,96.0133 100,89.5C 99.5005,95.8246 99.3338,102.158 99.5,108.5C 96.8333,108.5 94.1667,108.5 91.5,108.5C 91.5,102.167 91.5,95.8333 91.5,89.5C 92.0431,89.44 92.3764,89.1067 92.5,88.5C 90.9951,87.1585 90.3285,85.4918 90.5,83.5C 90.5106,81.9826 91.1772,80.8159 92.5,80C 96.3766,78.7842 99.0433,79.9509 100.5,83.5C 100.232,85.099 100.566,86.4324 101.5,87.5C 113.167,88.1667 124.833,88.8333 136.5,89.5C 136.167,89.5 135.833,89.5 135.5,89.5C 134.5,89.5 133.5,89.5 132.5,89.5C 132.167,89.5 131.833,89.5 131.5,89.5C 130.833,95.0139 130.167,100.681 129.5,106.5C 128.833,101.349 128.166,96.3489 127.5,91.5C 126.082,89.6921 124.082,89.0254 121.5,89.5C 121.5,95.8333 121.5,102.167 121.5,108.5C 135.167,109.833 148.833,109.833 162.5,108.5C 162.824,104.445 162.491,100.445 161.5,96.5C 160.676,99.7848 160.176,103.118 160,106.5C 158.989,107.337 157.822,107.67 156.5,107.5C 156.666,103.486 156.499,99.4862 156,95.5C 155.329,94.7476 154.496,94.4142 153.5,94.5C 152.515,98.6344 152.182,102.968 152.5,107.5C 151.5,107.5 150.5,107.5 149.5,107.5C 149.5,102.5 149.5,97.5 149.5,92.5C 148.167,92.5 146.833,92.5 145.5,92.5C 145.5,97.5 145.5,102.5 145.5,107.5C 144.5,107.5 143.5,107.5 142.5,107.5C 142.822,101.642 142.489,95.9753 141.5,90.5C 140.508,90.6716 139.842,90.3382 139.5,89.5C 140.239,89.631 140.906,89.4643 141.5,89C 140.584,88.7216 139.918,88.2216 139.5,87.5C 141.237,84.992 142.07,81.992 142,78.5C 143,77.1667 144,77.1667 145,78.5C 145.333,82.1667 145.667,85.8333 146,89.5C 147.011,90.3366 148.178,90.67 149.5,90.5C 149.5,87.5 149.5,84.5 149.5,81.5C 150.5,81.5 151.5,81.5 152.5,81.5C 152.335,84.8499 152.502,88.1832 153,91.5C 154.011,92.3366 155.178,92.67 156.5,92.5C 156.205,90.2646 156.539,88.2646 157.5,86.5C 157.248,89.3198 157.748,91.9865 159,94.5C 159.497,92.1902 159.663,89.8568 159.5,87.5C 160.165,89.6979 160.832,92.0312 161.5,94.5C 162.833,90.5 162.833,86.5 161.5,82.5C 153.804,79.1597 146.137,75.8263 138.5,72.5C 137.494,71.6043 137.494,70.9377 138.5,70.5C 146.262,73.546 153.929,76.8794 161.5,80.5C 162.463,80.0302 162.463,79.3635 161.5,78.5C 162.167,78.5 162.5,78.1667 162.5,77.5C 162.631,76.6236 162.298,75.9569 161.5,75.5C 158.103,73.4741 154.77,71.4741 151.5,69.5C 151.5,68.8333 151.5,68.1667 151.5,67.5 Z"/></g>
<g><path style="opacity:1" fill="#0e1242" d="M 53.5,89.5 C 54.1667,95.8333 54.8333,102.167 55.5,108.5C 56.8333,108.5 58.1667,108.5 59.5,108.5C 60.3279,102.347 60.8279,96.0133 61,89.5C 61.6667,112.167 62.3333,112.167 63,89.5C 63.1721,96.0133 63.6721,102.347 64.5,108.5C 66.5,108.5 68.5,108.5 70.5,108.5C 70.5,102.167 70.5,95.8333 70.5,89.5C 71.1665,95.0139 71.8332,100.681 72.5,106.5C 73.8059,100.946 73.8059,95.4462 72.5,90C 73.0944,89.5357 73.7611,89.369 74.5,89.5C 74.5,95.8333 74.5,102.167 74.5,108.5C 76.5,108.5 78.5,108.5 80.5,108.5C 81.3279,102.347 81.8279,96.0133 82,89.5C 82.6667,112.167 83.3333,112.167 84,89.5C 84.1721,96.0133 84.6721,102.347 85.5,108.5C 86.8333,108.5 88.1667,108.5 89.5,108.5C 90.1667,102.167 90.8333,95.8333 91.5,89.5C 91.5,95.8333 91.5,102.167 91.5,108.5C 94.1667,108.5 96.8333,108.5 99.5,108.5C 99.3338,102.158 99.5005,95.8246 100,89.5C 100.172,96.0133 100.672,102.347 101.5,108.5C 103.167,108.5 104.833,108.5 106.5,108.5C 107.151,107.909 107.818,107.243 108.5,106.5C 109.167,100.681 109.833,95.0139 110.5,89.5C 110.5,95.8333 110.5,102.167 110.5,108.5C 112.833,108.5 115.167,108.5 117.5,108.5C 87.6713,109.498 57.6713,109.831 27.5,109.5C 27.5,105.5 27.5,101.5 27.5,97.5C 27.8333,97.5 28.1667,97.5 28.5,97.5C 28.5,101.167 28.5,104.833 28.5,108.5C 36.8333,108.5 45.1667,108.5 53.5,108.5C 53.5,102.167 53.5,95.8333 53.5,89.5 Z"/></g>
<g><path style="opacity:1" fill="#bdbdc9" d="M 141.5,90.5 C 142.489,95.9753 142.822,101.642 142.5,107.5C 143.5,107.5 144.5,107.5 145.5,107.5C 146.833,107.5 148.167,107.5 149.5,107.5C 150.5,107.5 151.5,107.5 152.5,107.5C 152.182,102.968 152.515,98.6344 153.5,94.5C 153.5,98.8333 153.5,103.167 153.5,107.5C 154.5,107.5 155.5,107.5 156.5,107.5C 157.822,107.67 158.989,107.337 160,106.5C 160.176,103.118 160.676,99.7848 161.5,96.5C 162.491,100.445 162.824,104.445 162.5,108.5C 154.316,108.826 146.316,108.492 138.5,107.5C 139.5,107.5 140.5,107.5 141.5,107.5C 141.5,101.833 141.5,96.1667 141.5,90.5 Z"/></g>
<g><path style="opacity:1" fill="#fdfdfd" d="M 153.5,94.5 C 154.496,94.4142 155.329,94.7476 156,95.5C 156.499,99.4862 156.666,103.486 156.5,107.5C 155.5,107.5 154.5,107.5 153.5,107.5C 153.5,103.167 153.5,98.8333 153.5,94.5 Z"/></g>
<g><path style="opacity:1" fill="#f2f2f5" d="M 38.5,107.5 C 37.1667,107.5 35.8333,107.5 34.5,107.5C 34.3345,103.486 34.5012,99.4862 35,95.5C 36.0113,94.6634 37.1779,94.33 38.5,94.5C 38.5,98.8333 38.5,103.167 38.5,107.5 Z"/></g>
<g><path style="opacity:1" fill="#9a9aae" d="M 110.5,89.5 C 110.833,89.5 111.167,89.5 111.5,89.5C 111.5,95.5 111.5,101.5 111.5,107.5C 113.167,107.5 114.833,107.5 116.5,107.5C 116.5,101.5 116.5,95.5 116.5,89.5C 117.49,95.6446 117.823,101.978 117.5,108.5C 115.167,108.5 112.833,108.5 110.5,108.5C 110.5,102.167 110.5,95.8333 110.5,89.5 Z"/></g>
<g><path style="opacity:1" fill="#f4f3f4" d="M 149.5,107.5 C 148.167,107.5 146.833,107.5 145.5,107.5C 145.5,102.5 145.5,97.5 145.5,92.5C 146.833,92.5 148.167,92.5 149.5,92.5C 149.5,97.5 149.5,102.5 149.5,107.5 Z"/></g>
<g><path style="opacity:1" fill="#a3a4b4" d="M 131.5,89.5 C 131.833,89.5 132.167,89.5 132.5,89.5C 132.5,95.5 132.5,101.5 132.5,107.5C 133.5,107.5 134.5,107.5 135.5,107.5C 135.5,101.5 135.5,95.5 135.5,89.5C 135.833,89.5 136.167,89.5 136.5,89.5C 136.5,95.8333 136.5,102.167 136.5,108.5C 134.833,108.5 133.167,108.5 131.5,108.5C 131.5,102.167 131.5,95.8333 131.5,89.5 Z"/></g>
<g><path style="opacity:1" fill="#adaebd" d="M 51.5,90.5 C 51.8417,89.6618 52.5084,89.3284 53.5,89.5C 53.5,95.8333 53.5,102.167 53.5,108.5C 45.1667,108.5 36.8333,108.5 28.5,108.5C 28.5,104.833 28.5,101.167 28.5,97.5C 29.1499,97.1961 29.8165,96.8627 30.5,96.5C 31.4892,100.107 31.8226,103.774 31.5,107.5C 32.5,107.5 33.5,107.5 34.5,107.5C 35.8333,107.5 37.1667,107.5 38.5,107.5C 39.5,107.5 40.5,107.5 41.5,107.5C 41.1795,102.305 41.5128,97.3054 42.5,92.5C 42.5,97.5 42.5,102.5 42.5,107.5C 43.5,107.5 44.5,107.5 45.5,107.5C 45.8205,102.305 45.4872,97.3054 44.5,92.5C 44.56,91.9569 44.8933,91.6236 45.5,91.5C 46.4948,96.7921 46.8282,102.125 46.5,107.5C 47.5,107.5 48.5,107.5 49.5,107.5C 50.5,107.5 51.5,107.5 52.5,107.5C 52.8222,101.642 52.4889,95.9753 51.5,90.5 Z"/></g>
<g><path style="opacity:1" fill="#fdfdfd" d="M 42.5,92.5 C 43.1667,92.5 43.8333,92.5 44.5,92.5C 45.4872,97.3054 45.8205,102.305 45.5,107.5C 44.5,107.5 43.5,107.5 42.5,107.5C 42.5,102.5 42.5,97.5 42.5,92.5 Z"/></g>
<g><path style="opacity:1" fill="#fdfdfd" d="M 139.5,89.5 C 139.842,90.3382 140.508,90.6716 141.5,90.5C 141.5,96.1667 141.5,101.833 141.5,107.5C 140.5,107.5 139.5,107.5 138.5,107.5C 138.177,101.31 138.51,95.31 139.5,89.5 Z"/></g>
<g><path style="opacity:1" fill="#4c4b70" d="M 90.5,83.5 C 90.3285,85.4918 90.9951,87.1585 92.5,88.5C 92.3764,89.1067 92.0431,89.44 91.5,89.5C 90.8333,95.8333 90.1667,102.167 89.5,108.5C 89.5,102.167 89.5,95.8333 89.5,89.5C 88.1667,89.5 86.8333,89.5 85.5,89.5C 85.5,95.8333 85.5,102.167 85.5,108.5C 84.6721,102.347 84.1721,96.0133 84,89.5C 83.3333,112.167 82.6667,112.167 82,89.5C 81.8279,96.0133 81.3279,102.347 80.5,108.5C 80.5,102.167 80.5,95.8333 80.5,89.5C 78.5,89.5 76.5,89.5 74.5,89.5C 73.7611,89.369 73.0944,89.5357 72.5,90C 73.8059,95.4462 73.8059,100.946 72.5,106.5C 71.8332,100.681 71.1665,95.0139 70.5,89.5C 68.5,89.5 66.5,89.5 64.5,89.5C 64.5,95.8333 64.5,102.167 64.5,108.5C 63.6721,102.347 63.1721,96.0133 63,89.5C 62.3333,112.167 61.6667,112.167 61,89.5C 60.8279,96.0133 60.3279,102.347 59.5,108.5C 59.5,102.167 59.5,95.8333 59.5,89.5C 58.1667,89.5 56.8333,89.5 55.5,89.5C 66.8333,88.8333 78.1667,88.1667 89.5,87.5C 89.2322,85.901 89.5655,84.5676 90.5,83.5 Z"/></g>
<g><path style="opacity:1" fill="#f8f8f8" d="M 51.5,90.5 C 52.4889,95.9753 52.8222,101.642 52.5,107.5C 51.5,107.5 50.5,107.5 49.5,107.5C 48.8833,101.402 49.55,95.7351 51.5,90.5 Z"/></g>
<g><path style="opacity:1" fill="#070939" d="M 159.5,87.5 C 159.663,89.8568 159.497,92.1902 159,94.5C 157.748,91.9865 157.248,89.3198 157.5,86.5C 158.327,85.5613 158.994,85.8946 159.5,87.5 Z"/></g>
<g><path style="opacity:1" fill="#fefffe" d="M 132.5,89.5 C 133.5,89.5 134.5,89.5 135.5,89.5C 135.5,95.5 135.5,101.5 135.5,107.5C 134.5,107.5 133.5,107.5 132.5,107.5C 132.5,101.5 132.5,95.5 132.5,89.5 Z"/></g>
<g><path style="opacity:1" fill="#f5f5f7" d="M 127.5,91.5 C 127.5,97.1667 127.5,102.833 127.5,108.5C 125.5,108.5 123.5,108.5 121.5,108.5C 121.5,102.167 121.5,95.8333 121.5,89.5C 124.082,89.0254 126.082,89.6921 127.5,91.5 Z"/></g>
<g><path style="opacity:1" fill="#fefffe" d="M 111.5,89.5 C 113.167,89.5 114.833,89.5 116.5,89.5C 116.5,95.5 116.5,101.5 116.5,107.5C 114.833,107.5 113.167,107.5 111.5,107.5C 111.5,101.5 111.5,95.5 111.5,89.5 Z"/></g>
<g><path style="opacity:1" fill="#f9fafa" d="M 106.5,108.5 C 104.833,108.5 103.167,108.5 101.5,108.5C 101.5,102.167 101.5,95.8333 101.5,89.5C 103.167,89.5 104.833,89.5 106.5,89.5C 106.5,95.8333 106.5,102.167 106.5,108.5 Z"/></g>
<g><path style="opacity:1" fill="#fcfcfc" d="M 89.5,108.5 C 88.1667,108.5 86.8333,108.5 85.5,108.5C 85.5,102.167 85.5,95.8333 85.5,89.5C 86.8333,89.5 88.1667,89.5 89.5,89.5C 89.5,95.8333 89.5,102.167 89.5,108.5 Z"/></g>
<g><path style="opacity:1" fill="#f5f5f7" d="M 74.5,89.5 C 76.5,89.5 78.5,89.5 80.5,89.5C 80.5,95.8333 80.5,102.167 80.5,108.5C 78.5,108.5 76.5,108.5 74.5,108.5C 74.5,102.167 74.5,95.8333 74.5,89.5 Z"/></g>
<g><path style="opacity:1" fill="#f3f3f4" d="M 70.5,89.5 C 70.5,95.8333 70.5,102.167 70.5,108.5C 68.5,108.5 66.5,108.5 64.5,108.5C 64.5,102.167 64.5,95.8333 64.5,89.5C 66.5,89.5 68.5,89.5 70.5,89.5 Z"/></g>
<g><path style="opacity:1" fill="#fcfcfc" d="M 55.5,89.5 C 56.8333,89.5 58.1667,89.5 59.5,89.5C 59.5,95.8333 59.5,102.167 59.5,108.5C 58.1667,108.5 56.8333,108.5 55.5,108.5C 55.5,102.167 55.5,95.8333 55.5,89.5 Z"/></g>
<g><path style="opacity:1" fill="#21214c" d="M 128.5,76.5 C 129.822,76.33 130.989,76.6634 132,77.5C 132.497,80.146 132.664,82.8127 132.5,85.5C 130.5,85.5 128.5,85.5 126.5,85.5C 126.065,82.1625 126.732,79.1625 128.5,76.5 Z"/></g>
<g><path style="opacity:1" fill="#141743" d="M 60.5,76.5 C 61.8221,76.33 62.9887,76.6634 64,77.5C 64.4974,80.146 64.6641,82.8127 64.5,85.5C 62.8333,85.5 61.1667,85.5 59.5,85.5C 59.2641,82.3915 59.5975,79.3915 60.5,76.5 Z"/></g>
<g><path style="opacity:1" fill="#22224f" d="M 107.5,76.5 C 108.822,76.33 109.989,76.6634 111,77.5C 111.497,80.146 111.664,82.8127 111.5,85.5C 109.5,85.5 107.5,85.5 105.5,85.5C 105.065,82.1625 105.732,79.1625 107.5,76.5 Z"/></g>
<g><path style="opacity:1" fill="#1e1f4a" d="M 81.5,76.5 C 82.8221,76.33 83.9887,76.6634 85,77.5C 85.4974,80.146 85.6641,82.8127 85.5,85.5C 83.8333,85.5 82.1667,85.5 80.5,85.5C 80.2641,82.3915 80.5975,79.3915 81.5,76.5 Z"/></g>
<g><path style="opacity:1" fill="#222250" d="M 71.5,76.5 C 73.0174,76.5106 74.1841,77.1772 75,78.5C 75.4966,80.8098 75.6633,83.1432 75.5,85.5C 73.5,85.5 71.5,85.5 69.5,85.5C 69.0914,82.1445 69.7581,79.1445 71.5,76.5 Z"/></g>
<g><path style="opacity:1" fill="#242451" d="M 116.5,76.5 C 118.5,76.5 120.5,76.5 122.5,76.5C 122.5,79.5 122.5,82.5 122.5,85.5C 120.5,85.5 118.5,85.5 116.5,85.5C 116.5,82.5 116.5,79.5 116.5,76.5 Z"/></g>
</svg>
